<?xml version="1.0" encoding="utf-8"?>
<!-- Generator: Adobe Illustrator 22.0.0, SVG Export Plug-In . SVG Version: 6.00 Build 0)  -->
<svg version="1.1" id="Layer_1" xmlns="http://www.w3.org/2000/svg" xmlns:xlink="http://www.w3.org/1999/xlink" x="0px" y="0px"
	 viewBox="0 0 36 36" style="enable-background:new 0 0 36 36;" xml:space="preserve">
<style type="text/css">
	.st0{fill:#12B5BC;}
</style>
<path class="st0" d="M17.6,0.5C17.6,0.5,17.6,0.5,17.6,0.5c9.5,0,17.3,7.7,17.3,17.2c0,3.9-1.3,7.6-3.7,10.7l2.5,5.8
	c0.2,0.5,0,1-0.5,1.2c-0.2,0.1-0.4,0.1-0.5,0.1l-9.2-1.6c-1.8,0.7-3.8,1-5.7,1c-9.5,0-17.2-7.7-17.2-17.2C0.5,8.2,8.1,0.5,17.6,0.5z
	 M17.7,33c1.8,0,3.6-0.3,5.3-1c0.2-0.1,0.3-0.1,0.5,0l7.7,1.4l-2-4.8c-0.1-0.3-0.1-0.7,0.1-1c1.1-1.3,2-2.7,2.6-4.3
	c0.7-1.8,1.1-3.7,1.1-5.6c0-8.5-6.9-15.3-15.3-15.3C9.2,2.4,2.4,9.2,2.4,17.6v0.1C2.4,26.1,9.2,33,17.7,33z M18.4,14.3h5.1
	c0.5,0,0.9,0.4,0.9,0.9c0,0.5-0.4,0.9-0.9,0.9h-5.1c-0.5,0-0.9-0.4-0.9-0.9C17.5,14.7,17.9,14.3,18.4,14.3z M23.5,18.9H11.9
	c-0.5,0-0.9,0.4-0.9,0.9c0,0.5,0.4,0.9,0.9,0.9h11.6c0.5,0,0.9-0.4,0.9-0.9C24.4,19.4,24,18.9,23.5,18.9z"/>
</svg>
