<?xml version="1.0" encoding="utf-8"?>
<!-- Generator: Adobe Illustrator 22.0.0, SVG Export Plug-In . SVG Version: 6.00 Build 0)  -->
<svg version="1.1" id="Layer_1" xmlns="http://www.w3.org/2000/svg" xmlns:xlink="http://www.w3.org/1999/xlink" x="0px" y="0px"
	 viewBox="0 0 26 26" style="enable-background:new 0 0 26 26;" xml:space="preserve">
<style type="text/css">
	.st0{fill:url(#SVGID_1_);}
	.st1{fill:url(#SVGID_2_);}
</style>
<g>
	<linearGradient id="SVGID_1_" gradientUnits="userSpaceOnUse" x1="1" y1="13" x2="25" y2="13">
		<stop  offset="0" style="stop-color:#660099"/>
		<stop  offset="0.9141" style="stop-color:#FF6600"/>
	</linearGradient>
	<path class="st0" d="M25,6.1c-0.3-0.3-0.7-0.7-1-1c-0.2,0.2-0.4,0.4-0.6,0.6c-0.2,0.2-0.4,0.4-0.6,0.6C22.3,6,21.7,5.9,21.2,6
		c-0.6,0.1-1,0.5-1.4,1c0-0.2,0-0.2,0-0.3c0-1.9,0-3.7,0-5.6c0-0.1,0-0.2,0-0.3c-5,0-10,0-15,0C4,1.6,3.3,2.3,2.6,3
		C2.1,3.5,1.6,4,1.2,4.4C1.1,4.5,1,4.7,1,4.9c0,6.7,0,13.3,0,20c0,0.1,0,0.2,0,0.3c6.3,0,12.5,0,18.8,0c0-0.1,0-0.2,0-0.3
		c0-3.7,0-7.4,0-11.1c0-0.2,0-0.3,0.2-0.4c1.1-1.1,2.3-2.2,3.4-3.4c0.8-0.8,0.9-1.6,0.5-2.6c0-0.1,0-0.2,0.1-0.2
		C24.3,6.8,24.6,6.4,25,6.1z M5.1,2.6c0,0.8,0,1.6,0,2.4C4.3,5,3.5,5,2.7,5C3.5,4.2,4.3,3.4,5.1,2.6z M18.3,23.7
		c-5.3,0-10.6,0-15.9,0c0-5.8,0-11.5,0-17.3c1.4,0,2.7,0,4.1,0c0-1.4,0-2.8,0-4.1c3.9,0,7.8,0,11.8,0c0,0.1,0,0.2,0,0.3
		c0,1.9,0,3.8,0,5.7c0,0.2,0,0.3-0.2,0.4c-0.6,0.6-1.3,1.3-1.9,1.9c-0.1,0.1-0.2,0.2-0.4,0.2c-3.6,0-7.3,0-10.9,0
		c-0.1,0-0.2,0-0.3,0c0,0.5,0,0.9,0,1.4c3.3,0,6.6,0,9.9,0c0,0,0,0,0,0.1c-0.3,0.3-0.6,0.6-0.9,0.9c-0.3,0.4-0.7,0.5-1.1,0.5
		c-2.5,0-5.1,0-7.6,0c-0.1,0-0.2,0-0.3,0c0,0.5,0,0.9,0,1.4c2.4,0,4.7,0,7.1,0c-0.1,0.1-0.1,0.2-0.2,0.2c-0.3,0.3-0.5,0.5-0.8,0.8
		c-0.7,0.6-1.2,1.4-1.5,2.2c-0.2,0.6-0.4,1.1-0.7,1.6c-0.3-0.3-0.6-0.7-1-1c-0.5,0.5-1,1-1.4,1.4c-0.1,0.1-0.2,0.2-0.4,0.2
		c-0.6,0-1.3,0-2,0c0,0.5,0,0.9,0,1.4c0.1,0,0.3,0,0.4,0c0.7,0,1.4,0,2.2,0c0.1,0,0.2-0.1,0.3-0.1c0.3-0.3,0.6-0.6,0.9-0.9
		c0.3,0.3,0.7,0.7,1,1C8.8,21.9,8.8,22,9,21.9c1.3-0.6,2.7-1.1,4-1.7c0.1,0,0.2-0.1,0.3-0.2c1.6-1.6,3.2-3.2,4.8-4.8
		c0.1-0.1,0.1-0.1,0.2-0.2C18.3,17.9,18.3,20.8,18.3,23.7z M11.9,19.1c-0.5,0.2-1.1,0.5-1.7,0.7c0.3-0.6,0.5-1.2,0.7-1.7
		C11.3,18.4,11.6,18.8,11.9,19.1z M13.1,18.1c-0.4-0.4-0.8-0.8-1.2-1.2c2.6-2.6,5.2-5.2,7.8-7.8c0.4,0.4,0.8,0.8,1.2,1.2
		C18.3,12.9,15.7,15.5,13.1,18.1z M22.4,8.8C22.3,9,22.1,9.2,22,9.3c-0.4-0.4-0.8-0.8-1.3-1.3c0.2-0.2,0.4-0.4,0.6-0.6
		c0,0,0.1,0,0.1-0.1c0.4-0.2,0.8,0,1.1,0.5C22.7,8.2,22.7,8.6,22.4,8.8z"/>
	<linearGradient id="SVGID_2_" gradientUnits="userSpaceOnUse" x1="6.6641" y1="8.5465" x2="14.1018" y2="8.5465">
		<stop  offset="0" style="stop-color:#660099"/>
		<stop  offset="0.9141" style="stop-color:#FF6600"/>
	</linearGradient>
	<path class="st1" d="M14.1,7.9c-2.5,0-5,0-7.4,0c0,0.5,0,0.9,0,1.4c2.5,0,5,0,7.4,0C14.1,8.8,14.1,8.3,14.1,7.9z"/>
</g>
</svg>
