<?xml version="1.0" encoding="utf-8"?>
<!-- Generator: Adobe Illustrator 22.0.0, SVG Export Plug-In . SVG Version: 6.00 Build 0)  -->
<svg version="1.1" id="Layer_1" xmlns="http://www.w3.org/2000/svg" xmlns:xlink="http://www.w3.org/1999/xlink" x="0px" y="0px"
	 viewBox="0 0 16 16" style="enable-background:new 0 0 16 16;" xml:space="preserve">
<style type="text/css">
	.st0{fill:#660099;}
</style>
<g>
	<path class="st0" d="M2.7,2.7C4.2,1.2,5.9,0.5,8,0.5s3.8,0.7,5.3,2.2s2.2,3.2,2.2,5.3c0,2.1-0.7,3.8-2.2,5.3s-3.2,2.2-5.3,2.2
		s-3.8-0.7-5.3-2.2S0.5,10.1,0.5,8C0.5,5.9,1.2,4.2,2.7,2.7z M3.8,12.3C4.9,13.4,6.3,14,8,14s3.1-0.6,4.2-1.8S14,9.7,14,8
		c0-1.7-0.6-3.1-1.8-4.3S9.7,2,8,2S4.9,2.6,3.8,3.7S2,6.3,2,8C2,9.7,2.6,11.1,3.8,12.3z M7.2,5.8V4.2h1.5v1.5H7.2z M7.2,11.8V7.3
		h1.5v4.5H7.2z"/>
</g>
</svg>
