<?xml version="1.0" encoding="utf-8"?>
<!-- Generator: Adobe Illustrator 22.0.0, SVG Export Plug-In . SVG Version: 6.00 Build 0)  -->
<svg version="1.1" id="Layer_1" xmlns="http://www.w3.org/2000/svg" xmlns:xlink="http://www.w3.org/1999/xlink" x="0px" y="0px"
	 viewBox="0 0 116 34" style="enable-background:new 0 0 116 34;" xml:space="preserve">
<style type="text/css">
	.st0{fill:#FFFFFF;}
</style>
<path class="st0" d="M45.2,21.9c0,2.6,1.6,5,4.2,5c2.9,0,4.1-2.4,4.1-5c0-2.7-1.2-5.3-4.1-5.3C46.6,16.6,45.2,19.2,45.2,21.9z
	 M28.1,15.7c-1.9,0-3.3,1.2-3.8,3.2H32C31.6,16.9,30.2,15.7,28.1,15.7z M53.8,13.7V1.3l7.1,0.1V1.3h16.8V8H68v4.3h9.7v6.5H68v5.9
	h9.7v6.7H60.9v0.1h-7.1v-1.9h-0.1c-1.3,1.9-3.4,3-5.7,3c-5.4,0-9.3-4.3-9.9-9.3h-14c0,2.2,1.9,4.1,4,4.1c1.9,0,2.6-0.4,3.5-1.7h6.9
	c-1.8,4.4-5.2,6.8-10.4,6.8c-6.2,0-11-4.5-11-10.8c0-1.1,0.1-2.1,0.4-3h-8v12.7h-8V1.3h17.9V8H9.5v4.3h8.9v4
	c1.8-3.2,5.2-5.2,9.6-5.2c5.4,0,9,2.8,10.4,7.4c1.2-4.2,4.7-7.4,9.4-7.4C50.2,11.2,52.1,11.9,53.8,13.7L53.8,13.7z M76.3,2.6v4.1H68
	h-1.3V8v4.3v1.3H68h8.3v3.8H68h-1.3v1.3v5.9v1.3H68h8.3v4.1H62.2V2.6H76.3z M94.2,21l6.5-7.4h-5.1l-3.7,4.2L91,19l-1-1.1l-3.8-4.2
	h-5.5l6.6,7.4l0.8,0.9l-0.8,0.9l-6.6,7.4h5.2l3.7-4.3l1-1.1l1,1.1l3.8,4.3h5.5l-6.7-7.4l-0.8-0.9L94.2,21z M95,12.3h8.7l-8.5,9.6
	l8.6,9.7h-9l-4.2-4.7l-4.1,4.7h-8.7l8.6-9.6l-8.6-9.6h9l4.2,4.7L95,12.3z M110.9,24.9c-1.9,0-3.6,1.5-3.6,3.6c0,2.2,1.7,3.6,3.6,3.6
	s3.6-1.5,3.6-3.6C114.5,26.4,112.9,24.9,110.9,24.9z M111.8,27.5c0,0.3-0.2,0.6-0.8,0.6h-0.8v-1.2h0.8
	C111.6,26.9,111.8,27.2,111.8,27.5z M110.2,30.7v-2h0.6c0.4,0,0.6,0.1,0.7,0.5c0.1,0.2,0.1,0.4,0.1,0.6c0,0.3,0.1,0.6,0.2,0.8h0.7
	c-0.1-0.2-0.2-0.8-0.3-1.2c-0.1-0.6-0.2-0.9-0.6-1c0.4,0,0.8-0.4,0.8-0.9c0-0.8-0.4-1.2-1.4-1.2h-1.6v4.4H110.2z M110.9,25.5
	c1.7,0,3,1.3,3,3c0,1.8-1.2,3-3,3s-3-1.3-3-3C108,26.8,109.2,25.5,110.9,25.5z"/>
</svg>
