<?xml version="1.0" encoding="utf-8"?>
<!-- Generator: Adobe Illustrator 22.0.0, SVG Export Plug-In . SVG Version: 6.00 Build 0)  -->
<svg version="1.1" id="Layer_1" xmlns="http://www.w3.org/2000/svg" xmlns:xlink="http://www.w3.org/1999/xlink" x="0px" y="0px"
	 viewBox="0 0 120 35" style="enable-background:new 0 0 120 35;" xml:space="preserve">
<style type="text/css">
	.st0{fill:#FFFFFF;}
</style>
<g>
	<g id="g382" transform="translate(389.553,287.037)">
		<g>
			<path id="path384_8_" class="st0" d="M-279.4-257.8c0-2.2,1.7-3.7,3.7-3.7c2,0,3.7,1.5,3.7,3.7s-1.7,3.7-3.7,3.7
				C-277.7-254.1-279.4-255.6-279.4-257.8 M-275.7-258.2c0.6,0,0.8-0.3,0.8-0.6c0-0.4-0.2-0.6-0.8-0.6h-0.8v1.3H-275.7L-275.7-258.2
				z M-276.5-257.7v2h-0.7v-4.4h1.6c0.9,0,1.4,0.4,1.4,1.2c0,0.5-0.3,0.9-0.8,0.9l0,0c0.4,0,0.5,0.4,0.6,1c0,0.4,0.1,1.1,0.3,1.3
				h-0.8c-0.2-0.4-0.2-1-0.3-1.5c-0.1-0.4-0.3-0.5-0.8-0.5C-275.9-257.7-276.5-257.7-276.5-257.7z M-272.7-257.8c0-1.7-1.3-3-3-3
				c-1.7,0-3,1.3-3,3c0,1.7,1.3,3,3,3C-274-254.7-272.7-256-272.7-257.8"/>
		</g>
	</g>
	<g id="g386" transform="translate(381.397,285.1135)">
		<g>
			<g id="path388_8_">
				<path class="st0" d="M-278-271l-6.6,7.5l-0.8,0.9l0.8,0.9l6.8,7.6h-5.6l-3.9-4.3l-1-1.1l-1,1.1l-3.8,4.3h-5.3l6.7-7.5l0.8-0.9
					l-0.8-0.9l-6.7-7.5h5.6l3.9,4.3l1,1.1l1-1.1l3.7-4.3H-278 M-274.9-272.4h-8.8l-4.1,4.8l-4.3-4.8h-9.1l8.7,9.8l-8.7,9.8h8.8
					l4.2-4.8l4.3,4.8h9.2l-8.7-9.8L-274.9-272.4L-274.9-272.4z"/>
			</g>
		</g>
	</g>
	<g id="g390" transform="translate(359.4679,285.1135)">
		<g>
			<g id="path392_8_">
				<path class="st0" d="M-280.8-282.2v4.2h-8.5h-1.3v1.3v4.4v1.3h1.3h8.5v3.9h-8.5h-1.3v1.3v6.1v1.3h1.3h8.5v4.2h-14.4v-28.1
					H-280.8 M-279.5-283.6h-17.1v30.8l0,0h17.1v-6.9h-9.8v-6.1h9.8v-6.6h-9.8v-4.4h9.8V-283.6L-279.5-283.6z"/>
			</g>
		</g>
	</g>
	<g id="g394" transform="translate(352.1007,288.0945)">
		<path id="path396" class="st0" d="M-300.8-260.5c-2.6,0-4.3-2.5-4.3-5.1c0-2.8,1.4-5.4,4.3-5.4c3,0,4.2,2.6,4.2,5.4
			C-296.6-263-297.9-260.5-300.8-260.5 M-326.3-268.7c0.4-2,2-3.2,3.9-3.2c2.1,0,3.5,1.3,3.9,3.2H-326.3z M-296.4-286.6v12.6h-0.1
			c-1.6-1.8-3.6-2.5-5.9-2.5c-4.8,0-8.3,3.2-9.5,7.5c-1.4-4.7-5.1-7.6-10.6-7.6c-4.4,0-7.9,2-9.8,5.2v-4h-9.1v-4.4h10v-6.9h-18.2
			v30.8h8.2v-12.9h8.2c-0.2,0.9-0.4,2-0.4,3c0,6.4,4.9,10.9,11.2,10.9c5.2,0,8.7-2.5,10.6-6.9h-7c-0.9,1.3-1.7,1.7-3.5,1.7
			c-2.2,0-4.1-1.9-4.1-4.2h14.3c0.6,5.1,4.6,9.5,10,9.5c2.3,0,4.5-1.2,5.8-3.1h0.1v2h7.2v-30.8L-296.4-286.6L-296.4-286.6z"/>
	</g>
</g>
</svg>
