<?xml version="1.0" encoding="utf-8"?>
<!-- Generator: Adobe Illustrator 22.0.0, SVG Export Plug-In . SVG Version: 6.00 Build 0)  -->
<svg version="1.1" id="Layer_1" xmlns="http://www.w3.org/2000/svg" xmlns:xlink="http://www.w3.org/1999/xlink" x="0px" y="0px"
	 viewBox="0 0 26 26" style="enable-background:new 0 0 26 26;" xml:space="preserve">
<style type="text/css">
	.st0{fill:url(#SVGID_1_);}
	.st1{fill:url(#SVGID_2_);}
	.st2{fill:url(#SVGID_3_);}
	.st3{fill:url(#SVGID_4_);}
	.st4{fill:url(#SVGID_5_);}
</style>
<g>
	<linearGradient id="SVGID_1_" gradientUnits="userSpaceOnUse" x1="2.4468" y1="13" x2="23.5532" y2="13">
		<stop  offset="0" style="stop-color:#660099"/>
		<stop  offset="0.9141" style="stop-color:#FF6600"/>
	</linearGradient>
	<path class="st0" d="M23.6,1.9c0-0.4-0.1-0.8-0.5-0.9C16.3,1,9.7,1,3,1C2.6,1.2,2.4,1.5,2.4,1.9c0,7.4,0,14.7,0,22.1
		c0,0.4,0.1,0.8,0.5,0.9c5.2,0,10.4,0,15.6,0c0.2-0.1,0.4-0.3,0.6-0.5c1.4-1.4,2.7-2.7,4.1-4.1c0.2-0.2,0.3-0.5,0.3-0.8
		C23.5,13.7,23.5,7.8,23.6,1.9z M19.1,22.5c0-0.6,0-1.3,0-2c0.7,0,1.3,0,2,0C20.4,21.2,19.7,21.8,19.1,22.5z M22.1,19.1
		c-0.1,0-0.2,0-0.3,0c-1.1,0-2.3,0-3.4,0c-0.6,0-0.8,0.3-0.9,0.8c0,1.1,0,2.3,0,3.4c0,0.1,0,0.2,0,0.3c-4.6,0-9.2,0-13.8,0
		c0-7.1,0-14.1,0-21.2c6.1,0,12.2,0,18.3,0C22.1,8,22.1,13.5,22.1,19.1z"/>
	<linearGradient id="SVGID_2_" gradientUnits="userSpaceOnUse" x1="5.2654" y1="8.781" x2="20.7347" y2="8.781">
		<stop  offset="0" style="stop-color:#660099"/>
		<stop  offset="0.9141" style="stop-color:#FF6600"/>
	</linearGradient>
	<path class="st1" d="M6.1,13.7c4.6,0,9.2,0,13.9,0c0.5,0,0.8-0.3,0.8-0.8c0-2.2,0-4.3,0-6.5c0-0.5-0.3-0.8-0.8-0.8
		c-0.9,0-1.7,0-2.6,0c-0.6,0-0.8,0.3-0.8,0.8c0,1.8,0,3.7,0,5.5c0,0.1,0,0.2,0,0.3c-0.5,0-0.9,0-1.4,0c0-1,0-2,0-3
		c0-0.5-0.3-0.8-0.8-0.8c-0.9,0-1.8,0-2.6,0c-0.5,0-0.8,0.3-0.8,0.8c0,0.9,0,1.9,0,2.8c0,0.1,0,0.2,0,0.3c-0.5,0-0.9,0-1.4,0
		c0-0.1,0-0.2,0-0.3c0-2.5,0-5,0-7.4c0-0.5-0.3-0.8-0.8-0.8c-0.9,0-1.7,0-2.6,0c-0.5,0-0.8,0.3-0.8,0.8c0,2.8,0,5.6,0,8.3
		C5.3,13.5,5.5,13.7,6.1,13.7z M17.9,7.1c0.5,0,0.9,0,1.4,0c0,1.7,0,3.5,0,5.2c-0.5,0-0.9,0-1.4,0C17.9,10.6,17.9,8.9,17.9,7.1z
		 M12.3,9.9c0.5,0,0.9,0,1.4,0c0,0.8,0,1.6,0,2.4c-0.4,0-0.9,0-1.4,0C12.3,11.5,12.3,10.7,12.3,9.9z M6.7,5.2c0.5,0,0.9,0,1.4,0
		c0,2.4,0,4.7,0,7.1c-0.5,0-0.9,0-1.4,0C6.7,10,6.7,7.6,6.7,5.2z"/>
	<linearGradient id="SVGID_3_" gradientUnits="userSpaceOnUse" x1="5.264" y1="18.6717" x2="14.6424" y2="18.6717">
		<stop  offset="0" style="stop-color:#660099"/>
		<stop  offset="0.9141" style="stop-color:#FF6600"/>
	</linearGradient>
	<path class="st2" d="M6,19.4c1.4,0,2.8,0,4.2,0c1.2,0,2.5,0,3.7,0c0.3,0,0.6-0.1,0.7-0.4c0.2-0.5-0.1-1-0.7-1c-1.3,0-2.6,0-3.9,0
		c-1.3,0-2.6,0-3.9,0c-0.3,0-0.6,0.1-0.7,0.4C5.1,18.9,5.5,19.4,6,19.4z"/>
	<linearGradient id="SVGID_4_" gradientUnits="userSpaceOnUse" x1="5.2664" y1="15.8594" x2="11.8272" y2="15.8594">
		<stop  offset="0" style="stop-color:#660099"/>
		<stop  offset="0.9141" style="stop-color:#FF6600"/>
	</linearGradient>
	<path class="st3" d="M6.1,15.2c-0.5,0-0.8,0.3-0.8,0.7c0,0.4,0.3,0.7,0.8,0.7c0.8,0,1.6,0,2.5,0c0.8,0,1.7,0,2.5,0
		c0.5,0,0.8-0.3,0.8-0.7c0-0.4-0.3-0.7-0.8-0.7C9.4,15.2,7.7,15.2,6.1,15.2z"/>
	<linearGradient id="SVGID_5_" gradientUnits="userSpaceOnUse" x1="5.2664" y1="21.4843" x2="10.4209" y2="21.4843">
		<stop  offset="0" style="stop-color:#660099"/>
		<stop  offset="0.9141" style="stop-color:#FF6600"/>
	</linearGradient>
	<path class="st4" d="M9.6,20.8c-1.2,0-2.4,0-3.6,0c-0.5,0-0.8,0.3-0.8,0.7c0,0.4,0.3,0.7,0.8,0.7c0.6,0,1.2,0,1.8,0
		c0.6,0,1.2,0,1.8,0c0.5,0,0.8-0.3,0.8-0.7C10.4,21.1,10.1,20.8,9.6,20.8z"/>
</g>
</svg>
