<?xml version="1.0" encoding="utf-8"?>
<!-- Generator: Adobe Illustrator 22.0.0, SVG Export Plug-In . SVG Version: 6.00 Build 0)  -->
<svg version="1.1" id="Layer_1" xmlns="http://www.w3.org/2000/svg" xmlns:xlink="http://www.w3.org/1999/xlink" x="0px" y="0px"
	 viewBox="0 0 28 28" style="enable-background:new 0 0 28 28;" xml:space="preserve">
<style type="text/css">
	.st0{fill:#FFFFFF;}
</style>
<path class="st0" d="M14,1.5C7.1,1.5,1.5,7.1,1.5,14c0,6.9,5.6,12.5,12.5,12.5c6.9,0,12.5-5.6,12.5-12.5C26.5,7.1,20.9,1.5,14,1.5z
	 M14,24C8.5,24,4,19.5,4,14C4,8.5,8.5,4,14,4c5.5,0,10,4.5,10,10C24,19.5,19.5,24,14,24z M12.6,15.7l4.7-6.3h0
	c0.4-0.6,1.2-0.7,1.8-0.2c0.6,0.4,0.7,1.2,0.2,1.8l-5.7,7.5c-0.2,0.3-0.6,0.5-1,0.5c-0.4,0-0.7-0.2-1-0.5l-3-3.9
	c-0.4-0.5-0.3-1.3,0.2-1.8c0.5-0.4,1.3-0.3,1.8,0.2L12.6,15.7z"/>
</svg>
