<?xml version="1.0" encoding="utf-8"?>
<!-- Generator: Adobe Illustrator 22.0.0, SVG Export Plug-In . SVG Version: 6.00 Build 0)  -->
<svg version="1.1" id="Layer_1" xmlns="http://www.w3.org/2000/svg" xmlns:xlink="http://www.w3.org/1999/xlink" x="0px" y="0px"
	 viewBox="0 0 24 24" style="enable-background:new 0 0 24 24;" xml:space="preserve">
<style type="text/css">
	.st0{fill:url(#SVGID_1_);}
</style>
<linearGradient id="SVGID_1_" gradientUnits="userSpaceOnUse" x1="1" y1="12" x2="23" y2="12">
	<stop  offset="0" style="stop-color:#660099"/>
	<stop  offset="0.9141" style="stop-color:#FF6600"/>
</linearGradient>
<path class="st0" d="M23,8.3C23,8.3,23,8.3,23,8.3c-0.1-1.4-0.6-2.6-1.3-3.6c-1.4-1.8-3.1-2.7-5.3-2.6c-1.3,0.1-2.5,0.6-3.6,1.5
	c-0.2,0.2-0.4,0.4-0.6,0.6c-0.1,0.1-0.1,0.1-0.2,0.2c0,0-0.1-0.1-0.1-0.1c-0.1-0.1-0.2-0.2-0.3-0.3c-0.3-0.3-0.5-0.5-0.8-0.8
	c-1.9-1.4-4-1.6-6-0.5C2.4,3.9,1.2,5.8,1,8.6c-0.1,1.3,0.2,2.7,0.8,4.2c0.8,1.8,2.1,3.4,3.9,5.1c1.5,1.4,3.3,2.6,5.8,4
	c0.1,0.1,0.3,0.1,0.4,0.1c0.1,0,0.3,0,0.4-0.1c1.2-0.7,2.7-1.5,4.1-2.6c1.9-1.4,3.3-2.9,4.4-4.4c0.9-1.3,1.5-2.6,1.8-3.9
	c0.1-0.3,0.1-0.6,0.2-1c0-0.1,0-0.3,0.1-0.4L23,8.3L23,8.3z M21.4,8.7c0,1.8-0.5,3.4-1.7,5.1c-0.9,1.4-2.2,2.6-3.8,3.9
	c-1.2,0.9-2.4,1.7-3.9,2.5c0,0-0.1,0-0.1,0c-2.3-1.3-4.1-2.6-5.6-4.1c-1.5-1.4-2.4-2.7-3-4.2c-0.6-1.5-0.8-2.9-0.6-4.1
	c0.4-2,1.5-3.4,3.3-4c0.4-0.1,0.9-0.2,1.3-0.2c0.8,0,1.6,0.3,2.4,0.8c0.6,0.4,1,0.9,1.5,1.5L11.2,6c0.1,0.1,0.1,0.2,0.2,0.3
	c0.2,0.2,0.4,0.3,0.6,0.3c0,0,0,0,0,0c0.2,0,0.5-0.1,0.6-0.3c0.1-0.1,0.2-0.2,0.2-0.3c0.1-0.1,0.1-0.2,0.2-0.2
	c0.6-0.9,1.3-1.4,2.1-1.8c1.5-0.6,2.9-0.5,4.2,0.5C20.6,5.5,21.4,7,21.4,8.7z"/>
</svg>
