<?xml version="1.0" encoding="utf-8"?>
<!-- Generator: Adobe Illustrator 22.0.0, SVG Export Plug-In . SVG Version: 6.00 Build 0)  -->
<svg version="1.1" id="Layer_1" xmlns="http://www.w3.org/2000/svg" xmlns:xlink="http://www.w3.org/1999/xlink" x="0px" y="0px"
	 viewBox="0 0 26 26" style="enable-background:new 0 0 26 26;" xml:space="preserve">
<style type="text/css">
	.st0{fill:url(#SVGID_1_);}
	.st1{fill:url(#SVGID_2_);}
	.st2{fill:url(#SVGID_3_);}
	.st3{fill:url(#SVGID_4_);}
	.st4{fill:url(#SVGID_5_);}
</style>
<g>
	<linearGradient id="SVGID_1_" gradientUnits="userSpaceOnUse" x1="1" y1="13" x2="25" y2="13">
		<stop  offset="0" style="stop-color:#660099"/>
		<stop  offset="0.9141" style="stop-color:#FF6600"/>
	</linearGradient>
	<path class="st0" d="M25,6.1C25,6.1,24.9,6.1,25,6.1c-0.3-0.9-0.9-1.4-1.9-1.4c-1.3,0-2.8,0-4.4,0c0,0,0,0,0,0
		c-0.1,0-0.1,0-0.2-0.1c-1.2-1.9-3.3-3.1-5.6-3.1c-2.3,0-4.4,1.2-5.5,3.1c0,0.1-0.1,0.1-0.2,0.1c-1,0-2.1,0-3.1,0l-1,0
		C1.9,4.7,1.5,5,1,6.1l0,14.6l0,0.1c0.2,0.9,0.9,1.4,1.8,1.4c1.4,0,2.9,0,4.3,0l2.9,0v0.8H8.8c-0.7,0-1.5,0-2.2,0
		c-0.1,0-0.2,0-0.3,0c-0.3,0.1-0.6,0.4-0.5,0.7c0,0.3,0.3,0.6,0.6,0.7c0.1,0,0.2,0,0.2,0c0,0,0,0,0,0v-0.1l0,0.1h12.8
		c0.3,0,0.6-0.1,0.7-0.2c0.1-0.1,0.2-0.3,0.2-0.5c0-0.3-0.1-0.7-0.9-0.7h-3.5v-0.8h0c0.7,0,1.3,0,2,0c1.6,0,3.3,0,4.9,0
		c1.2,0,1.9-0.5,2.1-1.5L25,6.1L25,6.1z M14.5,22.9v0.2h-2.9v-0.8h2.9C14.5,22.5,14.5,22.7,14.5,22.9z M2.4,18.4h13.8
		c0.1,0,0.2,0,0.3,0c0.3,0,0.6-0.3,0.6-0.7c0-0.4-0.2-0.6-0.5-0.7c-0.1,0-0.3,0-0.4,0L2.4,17l0-10.4c0-0.4,0.1-0.5,0.5-0.5h3.8
		c0,0.1-0.1,0.2-0.1,0.3c-0.4,1.6-0.2,3.3,0.6,4.8c0.8,1.5,2.2,2.5,3.8,3c0.1,0,0.2,0.1,0.2,0.1c0.2,0.3,0.5,0.6,0.7,0.8l0.4,0.4
		c0.4,0.4,0.8,0.4,1.2,0l0.4-0.4c0.2-0.3,0.5-0.6,0.8-0.9c0-0.1,0.1-0.1,0.2-0.1c2.9-0.9,4.8-3.6,4.6-6.7c0-0.4-0.1-0.8-0.2-1.3
		c0-0.1,0-0.2-0.1-0.3c1.3,0,2.5,0,3.8,0c0.4,0,0.5,0.1,0.5,0.6l0,10.4l-2.9,0c-0.1,0-0.2,0-0.3,0c-0.3,0.1-0.6,0.4-0.5,0.7
		c0,0.4,0.3,0.6,0.6,0.7c0.3,0,0.5,0,0.8,0l0.2,0l1.5,0l0.6,0l0,0.5c0,0.6,0,1.1,0,1.6c0,0.2-0.2,0.3-0.4,0.3c0,0-0.1,0-0.2,0h-2.1
		h-1.5c-5.4,0-11,0-16.5,0c-0.2,0-0.3,0-0.4-0.1c-0.1-0.1-0.2-0.2-0.2-0.2c0-0.6,0-1.1,0-1.7L2.4,18.4z M14.4,12.9
		c-0.3,0.1-0.5,0.2-0.7,0.5c-0.2,0.2-0.4,0.5-0.6,0.7L13,14.2l-0.1-0.1c-0.2-0.3-0.4-0.5-0.7-0.8c-0.2-0.2-0.4-0.3-0.6-0.4
		c-2.1-0.7-3.3-2.1-3.7-4.2c-0.5-2.6,1.4-5.3,4-5.8h0c0.4-0.1,0.7-0.1,1.1-0.1c1,0,2.1,0.3,2.9,0.9c1.2,0.8,1.9,2,2.1,3.4
		C18.5,9.8,16.9,12.2,14.4,12.9z"/>
	<linearGradient id="SVGID_2_" gradientUnits="userSpaceOnUse" x1="11.5041" y1="19.6504" x2="14.4962" y2="19.6504">
		<stop  offset="0" style="stop-color:#660099"/>
		<stop  offset="0.9141" style="stop-color:#FF6600"/>
	</linearGradient>
	<path class="st1" d="M12.2,20.4c0.3,0,0.5,0,0.8,0c0.3,0,0.5,0,0.8,0c0.4,0,0.7-0.3,0.7-0.7c0-0.4-0.3-0.7-0.7-0.7l0,0
		c-0.2,0-0.3,0-0.5,0l-0.3,0l-0.7,0l0,0c-0.4,0-0.7,0.3-0.7,0.7c0,0.2,0.1,0.4,0.2,0.5C11.8,20.3,12,20.3,12.2,20.4z"/>
	<linearGradient id="SVGID_3_" gradientUnits="userSpaceOnUse" x1="17.7519" y1="17.7431" x2="19.1547" y2="17.7431">
		<stop  offset="0" style="stop-color:#660099"/>
		<stop  offset="0.9141" style="stop-color:#FF6600"/>
	</linearGradient>
	<path class="st2" d="M18.5,18.4c0.4,0,0.7-0.3,0.7-0.7c0-0.4-0.3-0.7-0.7-0.7h0c-0.2,0-0.4,0.1-0.5,0.2c-0.1,0.1-0.2,0.3-0.2,0.5
		C17.8,18.2,18.1,18.4,18.5,18.4z"/>
	<linearGradient id="SVGID_4_" gradientUnits="userSpaceOnUse" x1="11.3107" y1="10.2588" x2="14.7024" y2="10.2588">
		<stop  offset="0" style="stop-color:#660099"/>
		<stop  offset="0.9141" style="stop-color:#FF6600"/>
	</linearGradient>
	<path class="st3" d="M13,7.8L13,7.8c-0.9,0-1.6,0.6-1.7,1.5c0,0.2,0,0.4,0,0.7c0,0.1,0,0.2,0,0.3l0,0.1c0,0.1,0,0.1,0,0.2l0,0
		c0,0.2,0,0.5,0,0.7c0.1,0.8,0.8,1.5,1.7,1.5c0.9,0,1.6-0.7,1.7-1.5c0-0.6,0-1.3,0-1.9C14.6,8.5,13.9,7.8,13,7.8z M12.7,10
		c0-0.2,0-0.3,0-0.5c0-0.1,0.1-0.3,0.3-0.3c0.2,0,0.3,0.2,0.3,0.3c0,0.5,0,0.9,0,1.4c0,0.1,0,0.3-0.3,0.3c-0.2,0-0.3-0.2-0.3-0.3
		c0-0.2,0-0.3,0-0.5l0-0.2L12.7,10z"/>
	<linearGradient id="SVGID_5_" gradientUnits="userSpaceOnUse" x1="11.3037" y1="5.5722" x2="14.6962" y2="5.5722">
		<stop  offset="0" style="stop-color:#660099"/>
		<stop  offset="0.9141" style="stop-color:#FF6600"/>
	</linearGradient>
	<path class="st4" d="M13,7.3L13,7.3c0.9,0,1.7-0.8,1.7-1.7c0-0.9-0.8-1.7-1.7-1.7c-0.9,0-1.7,0.7-1.7,1.7c0,0.5,0.2,0.9,0.5,1.2
		C12.1,7.1,12.5,7.3,13,7.3z M13,5.2l0,0.1c0.2,0,0.3,0.1,0.3,0.3c0,0.1,0,0.1-0.1,0.2c-0.1,0.1-0.1,0.1-0.2,0.1
		c-0.1,0-0.3-0.1-0.3-0.3c0-0.2,0.1-0.3,0.3-0.3L13,5.2z"/>
</g>
</svg>
