<?xml version="1.0" encoding="utf-8"?>
<!-- Generator: Adobe Illustrator 22.0.0, SVG Export Plug-In . SVG Version: 6.00 Build 0)  -->
<svg version="1.1" id="Layer_1" xmlns="http://www.w3.org/2000/svg" xmlns:xlink="http://www.w3.org/1999/xlink" x="0px" y="0px"
	 viewBox="0 0 26 26" style="enable-background:new 0 0 26 26;" xml:space="preserve">
<style type="text/css">
	.st0{fill:url(#SVGID_1_);}
	.st1{fill:url(#SVGID_2_);}
</style>
<g>
	<linearGradient id="SVGID_1_" gradientUnits="userSpaceOnUse" x1="0.8765" y1="13" x2="25.1235" y2="13">
		<stop  offset="0" style="stop-color:#660099"/>
		<stop  offset="0.9141" style="stop-color:#FF6600"/>
	</linearGradient>
	<path class="st0" d="M25.1,12.3c0-0.1,0-0.3-0.1-0.4c0-0.3-0.1-0.6-0.1-0.9c-0.5-2.8-1.8-5.1-4-7c-1.8-1.6-4-2.6-6.3-2.9
		c-3.8-0.5-7.1,0.6-9.9,3.1c-1.9,1.8-3.2,4-3.7,6.6c-1.2,6.3,2.8,12.6,9,14c0.4,0.1,0.9,0.2,1.3,0.2c0.2,0,0.4,0.1,0.6,0.1
		c0,0,0.1,0,0.1,0l0.1,0l1.4,0c0.1,0,0.3,0,0.4-0.1c0.3,0,0.6-0.1,0.9-0.1c2.5-0.4,4.7-1.6,6.5-3.4c1.7-1.7,2.8-3.8,3.3-6.2
		C25,15,25,14.7,25,14.4c0-0.1,0-0.3,0.1-0.4c0-0.1,0-0.1,0-0.2l0-0.1L25.1,12.3z M23.5,13c0,2.8-1.1,5.4-3.1,7.4
		c-2,2-4.6,3.1-7.4,3.1c0,0,0,0,0,0C7.2,23.5,2.5,18.8,2.5,13c0-2.8,1.1-5.4,3.1-7.4s4.6-3.1,7.4-3.1c0,0,0,0,0,0
		c2.8,0,5.4,1.1,7.4,3.1C22.4,7.6,23.5,10.2,23.5,13z"/>
	<linearGradient id="SVGID_2_" gradientUnits="userSpaceOnUse" x1="9.1636" y1="12.9946" x2="16.8434" y2="12.9946">
		<stop  offset="0" style="stop-color:#660099"/>
		<stop  offset="0.9141" style="stop-color:#FF6600"/>
	</linearGradient>
	<path class="st1" d="M13.8,12.2c-0.2,0-0.4,0-0.6,0c-0.4,0-0.8,0-1.2,0c-0.7-0.1-1.3-0.7-1.2-1.5c0-0.7,0.6-1.3,1.3-1.4
		c0.1,0,0.2,0,0.3,0l0.9,0c0.6,0,1.2,0,1.8,0c0.3,0,0.5-0.1,0.7-0.3c0.1-0.1,0.2-0.4,0.2-0.6c0-0.5-0.4-0.8-0.9-0.8
		c-0.3,0-0.5,0-0.8,0h-0.5c0,0-0.1,0-0.1,0l0-0.4c0-0.3,0-0.7,0-1c0-0.5-0.4-0.9-0.8-0.9c0,0,0,0,0,0c-0.5,0-0.8,0.4-0.8,0.9
		c0,0.1,0,0.2,0,0.3l0,1.1c0,0-0.1,0-0.1,0c-1.4,0.1-2.6,1.1-2.8,2.4c-0.3,1.4,0.4,2.8,1.7,3.4c0.4,0.2,0.9,0.3,1.4,0.3
		c0.1,0,0.3,0,0.4,0c0.4,0,0.8,0,1.2,0c0.7,0.1,1.2,0.7,1.2,1.5c0,0.7-0.6,1.3-1.3,1.3c-0.5,0-1,0-1.5,0c-0.3,0-0.7,0-1,0
		c-0.2,0-0.5,0-0.8,0c-0.4,0.1-0.7,0.4-0.7,0.8c0,0.4,0.3,0.8,0.7,0.8c0.3,0,0.6,0,0.9,0c0.1,0,0.3,0,0.4,0h0.2l0,0.3
		c0,0.4,0,0.7,0,1.1c0,0.4,0.3,0.7,0.6,0.8c0.1,0,0.1,0,0.2,0c0.2,0,0.4-0.1,0.5-0.2c0.2-0.2,0.3-0.4,0.3-0.7c0-0.4,0-0.7,0-1.1
		l0-0.4c0,0,0.1,0,0.1,0c1-0.1,1.8-0.6,2.4-1.4c0.5-0.8,0.7-1.8,0.3-2.7C16.2,13,15.1,12.2,13.8,12.2z"/>
</g>
</svg>
