<?xml version="1.0" encoding="utf-8"?>
<!-- Generator: Adobe Illustrator 22.0.0, SVG Export Plug-In . SVG Version: 6.00 Build 0)  -->
<svg version="1.1" id="Layer_1" xmlns="http://www.w3.org/2000/svg" xmlns:xlink="http://www.w3.org/1999/xlink" x="0px" y="0px"
	 viewBox="0 0 30 30" style="enable-background:new 0 0 30 30;" xml:space="preserve">
<style type="text/css">
	.st0{fill:url(#SVGID_1_);}
	.st1{fill:url(#SVGID_2_);}
	.st2{fill:url(#SVGID_3_);}
	.st3{fill:url(#SVGID_4_);}
	.st4{fill:url(#SVGID_5_);}
	.st5{fill:url(#SVGID_6_);}
</style>
<g>
	<linearGradient id="SVGID_1_" gradientUnits="userSpaceOnUse" x1="2.8746" y1="20.2095" x2="21.4395" y2="20.2095">
		<stop  offset="0" style="stop-color:#660099"/>
		<stop  offset="0.9141" style="stop-color:#FF6600"/>
	</linearGradient>
	<path class="st0" d="M20.5,16c-0.1-0.1-0.3,0-0.4,0c-1.3,0.5-2.7,1.1-4,1.6c-0.3,0.1-0.4,0.4-0.3,0.7c0,0.1,0.1,0.2,0.1,0.4
		l0.1,0.3c0.1,0.3,0.3,0.5,0.6,0.4c0.3-0.1,0.5-0.3,0.4-0.7c0-0.1,0-0.2-0.1-0.3l0,0l3.1-1.3c0.9,2.9,0.4,5.4-1.3,7.6
		c-2.2,2.7-5,3.7-8.4,3c-2.5-0.5-4.3-2.1-5.5-4.5l3.1-1.2c0,0,0,0.1,0,0.1c0.8,1.4,2.2,2.4,3.8,2.5c1.6,0.2,3.2-0.5,4.2-1.7
		c0.5-0.6,0.9-1.3,1.1-2.1c0-0.2,0-0.4-0.1-0.5c-0.1-0.1-0.2-0.2-0.3-0.2c-0.3-0.1-0.6,0.1-0.7,0.5l0,0.2c-0.5,1.9-2.5,3.2-4.4,2.8
		c-1.6-0.3-2.8-1.6-3.1-3.2c-0.2-1.7,0.6-3.2,2.1-4c0.4-0.2,0.5-0.5,0.3-0.9c-0.6-1.2-1.1-2.5-1.7-3.7c-0.1-0.2-0.2-0.4-0.4-0.4
		c-0.1-0.1-0.3,0-0.6,0.1c-3.8,1.8-5.9,5.9-5.1,10c0.7,3.7,2.9,6.1,6.5,7.3c0.4,0.1,0.9,0.2,1.3,0.3c0.2,0,0.4,0.1,0.6,0.1h1.3l0,0
		c0.1,0,0.1,0,0.2,0c0.2-0.1,0.5-0.1,0.7-0.1c0.5-0.1,1-0.2,1.5-0.4c3.6-1.2,6.1-4.6,6.2-8.5c0-1.2-0.2-2.5-0.7-3.7
		C20.7,16.2,20.6,16.1,20.5,16z M4.2,17.6c0.7-2.2,2-3.9,4-5l1.4,3c-1.1,0.7-1.8,1.6-2.2,2.9L4.2,17.6z M7.4,21.1l-3,1.2
		c-0.4-1.2-0.5-2.4-0.3-3.6l0.5,0.1c0.9,0.2,1.8,0.5,2.6,0.7c0,0,0,0,0,0.1c0,0.4,0.1,0.8,0.1,1.2L7.4,21.1z"/>
	<linearGradient id="SVGID_2_" gradientUnits="userSpaceOnUse" x1="19.9345" y1="2.3115" x2="22.7476" y2="2.3115">
		<stop  offset="0" style="stop-color:#660099"/>
		<stop  offset="0.9141" style="stop-color:#FF6600"/>
	</linearGradient>
	<path class="st1" d="M21.3,3.7c0.1,0,0.3,0,0.4-0.1c0.7-0.2,1.1-0.9,1-1.6c-0.1-0.5-0.5-0.9-1.1-1.1l-0.6,0L20.9,1
		c0,0-0.1,0-0.1,0.1c-0.7,0.3-1,1.1-0.7,1.8C20.2,3.4,20.8,3.7,21.3,3.7z M21,2.3C21,2.1,21.2,2,21.3,2c0.1,0,0.2,0,0.2,0.1
		c0.1,0.1,0.1,0.2,0.1,0.2c0,0.1,0,0.2-0.1,0.2c-0.1,0.1-0.2,0.1-0.2,0.1c0,0,0,0,0,0c-0.1,0-0.2,0-0.2-0.1C21,2.5,21,2.4,21,2.3z"
		/>
	<linearGradient id="SVGID_3_" gradientUnits="userSpaceOnUse" x1="9.3173" y1="10.2297" x2="27.1254" y2="10.2297">
		<stop  offset="0" style="stop-color:#660099"/>
		<stop  offset="0.9141" style="stop-color:#FF6600"/>
	</linearGradient>
	<path class="st2" d="M21.2,10.3c-0.1-0.2-0.4-0.3-0.6-0.2c-0.2,0.1-0.4,0.3-0.3,0.6c0,0.1,0.1,0.2,0.1,0.3l0,0.1
		c0.1,0.2,0.2,0.4,0.3,0.6l0.1,0.2l-3.1,1.3c-1.8-2.4-3-2.9-5.9-2.3l-1.4-3c2.5-0.9,4.8-0.7,7,0.6l-0.8,0c-0.2,0-0.5,0-0.7,0
		c-0.3,0-0.5,0.2-0.5,0.5c0,0.3,0.2,0.5,0.5,0.5c0.1,0,0.1,0,0.2,0l9.3,0l0.3,0c0.2,0,0.4,0,0.7,0c0.3,0,0.5-0.2,0.6-0.5
		c0-0.3-0.2-0.5-0.5-0.5c-0.1,0-0.1,0-0.2,0l-1.4,0c-1.8,0-3.5,0-5.3,0c-0.2,0-0.3,0-0.5-0.2C16.3,6,13.1,5.6,9.7,7
		C9.5,7,9.4,7.1,9.3,7.3c-0.1,0.1,0,0.3,0.1,0.5c0.6,1.3,1.1,2.5,1.7,3.8c0.2,0.4,0.4,0.5,0.8,0.3c2-0.8,4.1,0,5,2
		c0.1,0.3,0.3,0.4,0.5,0.4c0.1,0,0.2,0,0.3-0.1c0.4-0.2,0.8-0.3,1.2-0.5l1-0.4c0.5-0.2,1.1-0.4,1.6-0.7c0.2-0.1,0.3-0.2,0.4-0.3
		c0-0.1,0-0.2,0-0.3C21.8,11.5,21.5,10.9,21.2,10.3z"/>
	<linearGradient id="SVGID_4_" gradientUnits="userSpaceOnUse" x1="20.3756" y1="4.0574" x2="25.9017" y2="4.0574">
		<stop  offset="0" style="stop-color:#660099"/>
		<stop  offset="0.9141" style="stop-color:#FF6600"/>
	</linearGradient>
	<path class="st3" d="M20.5,6.6L20.5,6.6c0.1,0.1,0.2,0.2,0.4,0.2c0.1,0,0.3-0.1,0.4-0.2c1.4-1.4,2.9-2.8,4.3-4.3
		c0.1-0.1,0.1-0.1,0.2-0.2c0,0,0-0.1,0.1-0.1l0-0.1l-0.1-0.1c0,0-0.1-0.1-0.1-0.1c-0.1-0.1-0.1-0.2-0.3-0.3
		c-0.2-0.1-0.4-0.1-0.6,0.1l-1.5,1.5c-0.9,0.9-1.8,1.8-2.7,2.8C20.3,6.1,20.3,6.4,20.5,6.6z"/>
	<linearGradient id="SVGID_5_" gradientUnits="userSpaceOnUse" x1="23.4378" y1="5.8096" x2="26.2528" y2="5.8096">
		<stop  offset="0" style="stop-color:#660099"/>
		<stop  offset="0.9141" style="stop-color:#FF6600"/>
	</linearGradient>
	<path class="st4" d="M24.9,4.4C24.8,4.4,24.8,4.4,24.9,4.4c-0.4,0-0.7,0.1-1,0.4c-0.3,0.3-0.4,0.6-0.4,1c0,0.4,0.1,0.7,0.4,1
		s0.6,0.4,1,0.4c0,0,0,0,0,0c0.8,0,1.4-0.6,1.4-1.4c0-0.4-0.1-0.7-0.4-1S25.2,4.4,24.9,4.4z M25.1,6c-0.1,0.1-0.2,0.1-0.2,0.1
		c-0.2,0-0.3-0.1-0.3-0.3c0-0.1,0-0.2,0.1-0.2c0.1-0.1,0.1-0.1,0.2-0.1c0,0,0,0,0,0c0.1,0,0.2,0,0.2,0.1c0.1,0.1,0.1,0.2,0.1,0.2
		C25.2,5.9,25.2,6,25.1,6z"/>
	<linearGradient id="SVGID_6_" gradientUnits="userSpaceOnUse" x1="23.0017" y1="10.6202" x2="27.1254" y2="10.6202">
		<stop  offset="0" style="stop-color:#660099"/>
		<stop  offset="0.9141" style="stop-color:#FF6600"/>
	</linearGradient>
	<path class="st5" d="M26.5,10.1L26.5,10.1c-1,0-1.9,0-2.9,0c-0.4,0-0.6,0.2-0.6,0.5c0,0.2,0,0.3,0.1,0.4c0.1,0.1,0.3,0.2,0.5,0.2
		c0.3,0,0.7,0,1,0l0.4,0l0.4,0c0.1,0,0.3,0,0.4,0c0.2,0,0.4,0,0.6,0c0.4,0,0.6-0.2,0.6-0.5c0-0.1,0-0.3-0.1-0.4
		C26.9,10.1,26.7,10.1,26.5,10.1z"/>
</g>
</svg>
