<svg width="14" height="14" viewBox="0 0 14 14" fill="none" xmlns="http://www.w3.org/2000/svg">
<path d="M9.12699 4.87302C8.58731 4.33334 7.8254 3.98413 7 3.98413C6.17461 3.98413 5.4127 4.31746 4.87302 4.87302C4.33334 5.4127 3.98413 6.17461 3.98413 7C3.98413 7.8254 4.33334 8.58731 4.87302 9.12699C5.4127 9.66667 6.17461 10.0159 7 10.0159C7.8254 10.0159 8.58731 9.68254 9.12699 9.12699C9.66667 8.58731 10.0159 7.8254 10.0159 7C10.0159 6.17461 9.68254 5.4127 9.12699 4.87302ZM8.55556 8.55556C8.15873 8.95238 7.60318 9.19048 7 9.19048C6.39683 9.19048 5.84127 8.95238 5.44445 8.55556C5.04762 8.15873 4.80953 7.60318 4.80953 7C4.80953 6.39683 5.04762 5.84127 5.44445 5.44445C5.84127 5.04762 6.39683 4.80953 7 4.80953C7.60318 4.80953 8.15873 5.04762 8.55556 5.44445C8.95238 5.84127 9.19048 6.39683 9.19048 7C9.19048 7.60318 8.95238 8.15873 8.55556 8.55556Z" fill="white" stroke="white" stroke-width="0.5"/>
<path d="M12.5873 6.58731H11.3651C11.1429 6.58731 10.9524 6.77779 10.9524 7.00001C10.9524 7.22223 11.1429 7.41271 11.3651 7.41271H12.5873C12.8095 7.41271 13 7.22223 13 7.00001C13 6.77779 12.8095 6.58731 12.5873 6.58731Z" fill="white" stroke="white" stroke-width="0.5"/>
<path d="M6.99998 10.9524C6.77776 10.9524 6.58728 11.1428 6.58728 11.3651V12.5873C6.58728 12.8095 6.77776 13 6.99998 13C7.2222 13 7.41268 12.8095 7.41268 12.5873V11.3651C7.41268 11.1428 7.2222 10.9524 6.99998 10.9524Z" fill="white" stroke="white" stroke-width="0.5"/>
<path d="M11.2381 10.6667L10.365 9.79364C10.2222 9.63491 9.95234 9.63491 9.79361 9.79364C9.63488 9.95237 9.63488 10.2063 9.79361 10.3651L10.6666 11.2381C10.8254 11.3968 11.0793 11.3968 11.2381 11.2381C11.3968 11.0794 11.3968 10.8254 11.2381 10.6667Z" fill="white" stroke="white" stroke-width="0.5"/>
<path d="M6.99998 1C6.77776 1 6.58728 1.19048 6.58728 1.4127V2.63492C6.58728 2.85714 6.77776 3.04762 6.99998 3.04762C7.2222 3.04762 7.41268 2.85714 7.41268 2.63492V1.4127C7.41268 1.19048 7.2222 1 6.99998 1Z" fill="white" stroke="white" stroke-width="0.5"/>
<path d="M11.2539 2.7619C11.0952 2.60317 10.8412 2.60317 10.6825 2.7619L9.80948 3.63492C9.65075 3.79365 9.65075 4.04761 9.80948 4.20634C9.95233 4.36508 10.2222 4.36508 10.3809 4.20634L11.2539 3.33333C11.4127 3.1746 11.4127 2.92063 11.2539 2.7619Z" fill="white" stroke="white" stroke-width="0.5"/>
<path d="M2.63492 6.58731H1.4127C1.19048 6.58731 1 6.77779 1 7.00001C1 7.22223 1.1746 7.41271 1.4127 7.41271H2.63492C2.85714 7.41271 3.04762 7.22223 3.04762 7.00001C3.04762 6.77779 2.85714 6.58731 2.63492 6.58731Z" fill="white" stroke="white" stroke-width="0.5"/>
<path d="M4.19045 9.79364C4.04759 9.63491 3.77775 9.63491 3.61902 9.79364L2.746 10.6667C2.58727 10.8254 2.58727 11.0794 2.746 11.2381C2.90473 11.3968 3.1587 11.3968 3.31743 11.2381L4.19045 10.3651C4.34918 10.2063 4.34918 9.95237 4.19045 9.79364Z" fill="white" stroke="white" stroke-width="0.5"/>
<path d="M4.19045 3.63492L3.31743 2.7619C3.1587 2.60317 2.90473 2.60317 2.746 2.7619C2.58727 2.92063 2.58727 3.1746 2.746 3.33333L3.61902 4.20634C3.77775 4.36508 4.03172 4.36508 4.19045 4.20634C4.34918 4.04761 4.34918 3.79365 4.19045 3.63492Z" fill="white" stroke="white" stroke-width="0.5"/>
</svg>
