<svg width="35" height="35" viewBox="0 0 35 35" fill="none" xmlns="http://www.w3.org/2000/svg">
<path d="M17.1047 0C17.1141 0.00937754 17.1328 0.00937754 17.161 0.00937754C26.6511 0.00937754 34.3688 7.7271 34.3688 17.2172C34.3688 21.0901 33.0465 24.8505 30.6271 27.8794L33.1309 33.6935C33.3372 34.1718 33.1122 34.725 32.6433 34.922C32.4745 34.997 32.287 35.0157 32.1088 34.9876L22.9282 33.3747C21.0902 34.0405 19.1584 34.3781 17.2079 34.3687C7.71779 34.3687 7.24792e-05 26.651 7.24792e-05 17.1609C-0.0186844 7.69896 7.64277 0.00937754 17.1047 0ZM17.1985 32.5026C19.0084 32.5026 20.7995 32.1744 22.4968 31.5367C22.6562 31.471 22.825 31.4617 22.9938 31.4898L30.7209 32.8402L28.6766 28.0857C28.5359 27.7575 28.5922 27.3731 28.8266 27.1011C29.9332 25.8164 30.8147 24.3535 31.4336 22.7687C32.1275 20.9963 32.4839 19.1114 32.4839 17.2078C32.4839 8.74925 25.6008 1.87551 17.1516 1.87551C8.72119 1.85675 1.87558 8.67423 1.8662 17.1046C1.8662 17.1234 1.8662 17.1421 1.8662 17.1609C1.8662 25.6288 8.74932 32.5026 17.1985 32.5026Z" fill="#12B5BC"/>
</svg>
