<?xml version="1.0" encoding="utf-8"?>
<!-- Generator: Adobe Illustrator 22.0.0, SVG Export Plug-In . SVG Version: 6.00 Build 0)  -->
<svg version="1.1" id="Layer_1" xmlns="http://www.w3.org/2000/svg" xmlns:xlink="http://www.w3.org/1999/xlink" x="0px" y="0px"
	 viewBox="0 0 28 28" style="enable-background:new 0 0 28 28;" xml:space="preserve">
<style type="text/css">
	.st0{fill:url(#SVGID_1_);}
	.st1{fill:url(#SVGID_2_);}
	.st2{fill:url(#SVGID_3_);}
	.st3{fill:url(#SVGID_4_);}
	.st4{fill:url(#SVGID_5_);}
</style>
<g>
	<linearGradient id="SVGID_1_" gradientUnits="userSpaceOnUse" x1="1" y1="14" x2="27" y2="14">
		<stop  offset="0" style="stop-color:#660099"/>
		<stop  offset="0.9141" style="stop-color:#FF6600"/>
	</linearGradient>
	<path class="st0" d="M26.9,8.5c-0.4-2.8-2.7-4.9-5.6-4.9c-2.6,0-4.9,1.9-5.5,4.5c0,0.2-0.1,0.2-0.3,0.2c-2.2,0-4.4,0-6.6,0
		c-0.1,0-0.3,0-0.4,0C8,8.4,7.5,8.7,7.2,9.3C7.1,9.6,7,9.9,7,10.3c0,0.4,0,0.8,0,1.2c-0.1,0-0.2,0-0.3,0c-1,0-1.9,0-2.9,0
		c-1.6,0-2.8,1.2-2.8,2.8c0,0.9,0,1.9,0,2.8c0,1.2,0,2.3,0,3.5c0,0.8,0.5,1.4,1.2,1.6c0.3,0.1,0.7,0.1,1.1,0c0.3,0,0.4,0.1,0.5,0.4
		c0.4,1.1,1.5,1.9,2.8,1.8c1.3,0,2.3-0.8,2.8-2c0.1-0.1,0.1-0.2,0.3-0.2c1.3,0,2.6,0,3.9,0c0.2,0,0.2,0.1,0.3,0.2
		c0.1,0.2,0.2,0.5,0.4,0.7c1.3,1.8,3.9,1.6,5-0.3c0.1-0.6,0.5-0.6,1-0.6c0.4,0,0.9-0.1,1.2-0.4c0.5-0.4,0.7-0.9,0.7-1.6
		c0-1.7,0-3.4,0-5.1c0-0.2,0-0.3,0.2-0.3c2.4-0.5,3.9-1.9,4.5-4.3C26.9,10.3,27,10,27,9.8c0-0.3,0-0.7,0-1C27,8.7,27,8.6,26.9,8.5z
		 M3.8,20.3c-0.1,0.2-0.2,0.3-0.4,0.3c-0.2,0-0.4,0-0.6,0c-0.1,0-0.2-0.1-0.2-0.2c0-2.1,0-4.2,0-6.3C2.5,13.5,3,13,3.7,13
		c1.1,0,2.2,0,3.2,0c0,0,0,0,0.1,0c0,1.8,0,3.6,0,5.4c-0.4,0.1-0.9,0.1-1.3,0.2C4.8,18.8,4.1,19.4,3.8,20.3z M6.5,22.8
		c-0.8,0-1.4-0.6-1.4-1.4c0-0.8,0.6-1.4,1.4-1.4c0.8,0,1.4,0.7,1.4,1.4C8,22.2,7.3,22.8,6.5,22.8z M16.6,22.8
		c-0.8,0-1.4-0.7-1.4-1.4c0-0.8,0.7-1.4,1.4-1.4c0.8,0,1.4,0.7,1.4,1.4C18,22.2,17.4,22.8,16.6,22.8z M20.6,20.2
		c0,0.3-0.1,0.4-0.4,0.4c-0.5,0-0.8,0-1-0.6c-0.8-1.7-2.8-2.1-4.3-1.1c-0.5,0.3-0.9,0.8-1,1.4c-0.1,0.2-0.2,0.2-0.3,0.2
		c-1.3,0-2.6,0-3.9,0c-0.2,0-0.2-0.1-0.3-0.2c-0.2-0.4-0.4-0.7-0.6-1.1c-0.1-0.1-0.1-0.2-0.1-0.3c0-2.9,0-5.8,0-8.8
		c0-0.3,0.1-0.4,0.4-0.4c2.2,0,4.5,0,6.7,0c0.1,0,0.1,0,0.1,0c0.2,0.5,0.2,1,0.4,1.5c0.8,1.9,2.2,3,4.2,3.4c0.2,0,0.2,0.1,0.2,0.3
		C20.6,16.8,20.6,18.5,20.6,20.2z M21.3,13.4c-2.3-0.1-4.1-1.9-4.1-4.1c0.1-2.3,1.9-4.1,4.1-4.1c2.3,0,4.1,1.9,4.1,4.2
		C25.4,11.6,23.5,13.4,21.3,13.4z"/>
	<linearGradient id="SVGID_2_" gradientUnits="userSpaceOnUse" x1="20.5826" y1="10.3174" x2="22.1137" y2="10.3174">
		<stop  offset="0" style="stop-color:#660099"/>
		<stop  offset="0.9141" style="stop-color:#FF6600"/>
	</linearGradient>
	<path class="st1" d="M21.3,8.5c-0.4,0-0.7,0.3-0.7,0.8c0,0.3,0,0.7,0,1c0,0.4,0,0.7,0,1.1c0,0.5,0.3,0.8,0.7,0.8
		c0.4,0,0.8-0.3,0.8-0.8c0-0.7,0-1.4,0-2.1C22.1,8.8,21.8,8.5,21.3,8.5z"/>
	<linearGradient id="SVGID_3_" gradientUnits="userSpaceOnUse" x1="20.587" y1="7.147" x2="22.1036" y2="7.147">
		<stop  offset="0" style="stop-color:#660099"/>
		<stop  offset="0.9141" style="stop-color:#FF6600"/>
	</linearGradient>
	<path class="st2" d="M21.3,7.9c0.4,0,0.8-0.3,0.8-0.8c0-0.4-0.4-0.8-0.8-0.8c-0.4,0-0.7,0.3-0.7,0.8C20.6,7.6,20.9,7.9,21.3,7.9z"
		/>
	<linearGradient id="SVGID_4_" gradientUnits="userSpaceOnUse" x1="5.7673" y1="21.3914" x2="7.2879" y2="21.3914">
		<stop  offset="0" style="stop-color:#660099"/>
		<stop  offset="0.9141" style="stop-color:#FF6600"/>
	</linearGradient>
	<path class="st3" d="M6.5,20.6c-0.4,0-0.7,0.3-0.7,0.8c0,0.4,0.3,0.8,0.8,0.8c0.4,0,0.8-0.3,0.8-0.8C7.3,21,6.9,20.6,6.5,20.6z"/>
	<linearGradient id="SVGID_5_" gradientUnits="userSpaceOnUse" x1="15.8201" y1="21.3914" x2="17.3396" y2="21.3914">
		<stop  offset="0" style="stop-color:#660099"/>
		<stop  offset="0.9141" style="stop-color:#FF6600"/>
	</linearGradient>
	<path class="st4" d="M16.6,20.6c-0.4,0-0.7,0.3-0.7,0.8c0,0.4,0.3,0.8,0.8,0.8c0.4,0,0.8-0.3,0.8-0.7C17.3,21,17,20.6,16.6,20.6z"
		/>
</g>
</svg>
