<?xml version="1.0" encoding="utf-8"?>
<!-- Generator: Adobe Illustrator 22.0.0, SVG Export Plug-In . SVG Version: 6.00 Build 0)  -->
<svg version="1.1" id="Layer_1" xmlns="http://www.w3.org/2000/svg" xmlns:xlink="http://www.w3.org/1999/xlink" x="0px" y="0px"
	 viewBox="0 0 20 20" style="enable-background:new 0 0 20 20;" xml:space="preserve">
<style type="text/css">
	.st0{fill:#FF6600;}
</style>
<g>
	<path class="st0" d="M12.1,4.2l5.6,9.3c0.4,0.7,0.4,1.5,0,2.2c-0.4,0.8-1.3,1.2-2.1,1.2H4.4c-0.9,0-1.7-0.5-2.1-1.2
		c-0.4-0.7-0.4-1.5,0-2.2l5.6-9.3c0.2-0.3,0.5-0.6,0.8-0.8C9.8,2.7,11.4,3.1,12.1,4.2z M15.6,15.5c0.4,0,0.7-0.2,0.9-0.5
		c0.1-0.2,0.1-0.5,0-0.7L10.9,5c-0.1-0.1-0.1-0.1-0.2-0.2C10.2,4.4,9.5,4.5,9.1,5l-5.6,9.3c-0.1,0.2-0.1,0.5,0,0.7
		c0.2,0.3,0.5,0.5,0.9,0.5H15.6z M10.5,12.8c0.3,0.3,0.3,0.7,0,1c-0.3,0.3-0.7,0.3-1,0c-0.3-0.3-0.3-0.7,0-1
		C9.8,12.5,10.2,12.5,10.5,12.8z M9.3,8.2c0-0.4,0.3-0.7,0.7-0.7s0.7,0.3,0.7,0.7v2.9c0,0.4-0.3,0.7-0.7,0.7s-0.7-0.3-0.7-0.7V8.2z"
		/>
</g>
</svg>
