<svg width="29" height="29" viewBox="0 0 29 29" fill="none" xmlns="http://www.w3.org/2000/svg">
<path fill-rule="evenodd" clip-rule="evenodd" d="M14.5 0.75C6.90608 0.75 0.75 6.90608 0.75 14.5C0.75 22.0939 6.90608 28.25 14.5 28.25C22.0939 28.25 28.25 22.0939 28.25 14.5C28.25 6.90608 22.0939 0.75 14.5 0.75ZM14.5 25.5C8.42486 25.5 3.5 20.5751 3.5 14.5C3.5 8.42486 8.42486 3.5 14.5 3.5C20.5751 3.5 25.5 8.42486 25.5 14.5C25.5 20.5751 20.5751 25.5 14.5 25.5ZM15.875 13.125H18.625C19.3844 13.125 20 13.7406 20 14.5C20 15.2594 19.3844 15.875 18.625 15.875H15.875V18.625C15.875 19.3844 15.2594 20 14.5 20C13.7406 20 13.125 19.3844 13.125 18.625V15.875H10.375C9.61561 15.875 9 15.2594 9 14.5C9 13.7406 9.61561 13.125 10.375 13.125H13.125V10.375C13.125 9.61561 13.7406 9 14.5 9C15.2594 9 15.875 9.61561 15.875 10.375V13.125Z" fill="#660099"/>
</svg>
