<?xml version="1.0" encoding="utf-8"?>
<!-- Generator: Adobe Illustrator 22.0.0, SVG Export Plug-In . SVG Version: 6.00 Build 0)  -->
<svg version="1.1" id="Layer_1" xmlns="http://www.w3.org/2000/svg" xmlns:xlink="http://www.w3.org/1999/xlink" x="0px" y="0px"
	 viewBox="0 0 26 26" style="enable-background:new 0 0 26 26;" xml:space="preserve">
<style type="text/css">
	.st0{fill:url(#SVGID_1_);}
	.st1{fill:url(#SVGID_2_);}
	.st2{fill:url(#SVGID_3_);}
</style>
<g>
	<linearGradient id="SVGID_1_" gradientUnits="userSpaceOnUse" x1="1" y1="13" x2="25" y2="13">
		<stop  offset="0" style="stop-color:#660099"/>
		<stop  offset="0.9141" style="stop-color:#FF6600"/>
	</linearGradient>
	<path class="st0" d="M24.8,10.9c-0.7-3.8-2.8-6.6-6.2-8.5c-1.9-1-4-1.5-6.1-1.4C8,1.3,4.6,3.4,2.4,7.4c-1.1,1.9-1.5,4-1.4,6.1
		c0.3,4.5,2.4,7.9,6.4,10.1c1.5,0.8,3.1,1.3,4.7,1.4c0.1,0,0.1,0,0.2,0c0.5,0,0.9,0,1.4,0c0.5-0.1,0.9-0.1,1.4-0.2
		c3.8-0.7,6.6-2.8,8.5-6.2c0.8-1.5,1.3-3.1,1.4-4.7c0-0.1,0-0.1,0-0.2c0-0.5,0-0.9,0-1.4C24.9,11.8,24.9,11.4,24.8,10.9z M13,23.5
		C7.2,23.5,2.5,18.8,2.5,13C2.5,7.2,7.2,2.5,13,2.5c5.8,0,10.5,4.7,10.5,10.5C23.5,18.8,18.8,23.5,13,23.5z"/>
	<linearGradient id="SVGID_2_" gradientUnits="userSpaceOnUse" x1="7.0018" y1="9.2488" x2="19.004" y2="9.2488">
		<stop  offset="0" style="stop-color:#660099"/>
		<stop  offset="0.9141" style="stop-color:#FF6600"/>
	</linearGradient>
	<path class="st1" d="M7,12.2c0.5,0,1,0,1.5,0c0-0.8,0-1.5,0-2.2c2.6,0,5.3,0,7.9,0c-0.6,0.6-1.1,1.1-1.7,1.7
		c0.4,0.4,0.7,0.7,1.1,1.1c0,0,0.1-0.1,0.1-0.1c0.9-0.9,1.8-1.8,2.7-2.7c0.4-0.4,0.4-0.8,0-1.3c-0.9-0.9-1.8-1.8-2.7-2.7
		c0,0-0.1-0.1-0.1-0.1c-0.4,0.4-0.7,0.7-1.1,1.1c0.5,0.5,1.1,1.1,1.7,1.7c-0.1,0-0.2,0-0.3,0c-2.5,0-5,0-7.5,0c-1,0-1.6,0.6-1.6,1.6
		c0,0.4,0,0.9,0,1.3C7,11.7,7,12,7,12.2z"/>
	<linearGradient id="SVGID_3_" gradientUnits="userSpaceOnUse" x1="6.9992" y1="16.7552" x2="19.0048" y2="16.7552">
		<stop  offset="0" style="stop-color:#660099"/>
		<stop  offset="0.9141" style="stop-color:#FF6600"/>
	</linearGradient>
	<path class="st2" d="M17.5,13.8c0,0.7,0,1.5,0,2.2c-2.6,0-5.3,0-7.9,0c0.6-0.6,1.1-1.1,1.7-1.7c-0.4-0.4-0.7-0.7-1.1-1.1
		c0,0-0.1,0.1-0.1,0.1c-0.9,0.9-1.8,1.8-2.8,2.8c-0.4,0.4-0.4,0.8,0,1.2c0.6,0.6,1.2,1.2,1.8,1.8c0.4,0.4,0.7,0.7,1.1,1.1
		c0.4-0.4,0.7-0.7,1.1-1.1c-0.5-0.5-1.1-1.1-1.7-1.7c0.1,0,0.2,0,0.3,0c2,0,4,0,5.9,0c0.6,0,1.1,0,1.7,0c0.8,0,1.5-0.6,1.5-1.4
		c0-0.8,0-1.5,0-2.3C18.5,13.8,18,13.8,17.5,13.8z"/>
</g>
</svg>
