<?xml version="1.0" encoding="utf-8"?>
<!-- Generator: Adobe Illustrator 22.0.0, SVG Export Plug-In . SVG Version: 6.00 Build 0)  -->
<svg version="1.1" id="Layer_1" xmlns="http://www.w3.org/2000/svg" xmlns:xlink="http://www.w3.org/1999/xlink" x="0px" y="0px"
	 viewBox="0 0 28 28" style="enable-background:new 0 0 28 28;" xml:space="preserve">
<style type="text/css">
	.st0{fill:#FFFFFF;}
</style>
<g>
	<path class="st0" d="M26.7,9.6c-0.2-0.3-0.6-0.4-0.9-0.4h-1.2L25,6.6c0.1-0.4-0.1-0.7-0.3-1c-0.2-0.3-0.6-0.4-0.9-0.4h-1.9l0.4-2.4
		c0.1-0.4-0.1-0.7-0.3-1c-0.2-0.3-0.6-0.4-0.9-0.4H6.9C6.6,1.4,6.3,1.5,6,1.8c-0.2,0.3-0.3,0.6-0.3,1l0.4,2.4H4.2
		c-0.4,0-0.7,0.2-0.9,0.4C3.1,5.9,3,6.3,3,6.6l0.4,2.5H2.2c-0.4,0-0.7,0.2-0.9,0.4C1.1,9.8,1,10.1,1,10.5L2.4,25c0,0,0,0,0,0
		c0.1,0.9,0.9,1.6,1.8,1.6h19.6c1,0,1.8-0.7,1.8-1.6L27,10.5C27,10.1,26.9,9.8,26.7,9.6z M20.4,3.2l-0.3,2H8l-0.3-2H20.4z M23.1,7
		l-0.3,2.1H5.3L4.9,7H23.1z M23.8,24.8C23.8,24.8,23.8,24.8,23.8,24.8l-19.6,0c0,0,0,0,0,0L2.9,10.9h22.2L23.8,24.8z"/>
	<path class="st0" d="M10.2,16.7h7.6c0.5,0,0.9-0.4,0.9-0.9c0-0.5-0.4-0.9-0.9-0.9h-7.6c-0.5,0-0.9,0.4-0.9,0.9
		C9.3,16.3,9.7,16.7,10.2,16.7z"/>
</g>
</svg>
