<?xml version="1.0" encoding="utf-8"?>
<!-- Generator: Adobe Illustrator 22.0.0, SVG Export Plug-In . SVG Version: 6.00 Build 0)  -->
<svg version="1.1" id="Layer_1" xmlns="http://www.w3.org/2000/svg" xmlns:xlink="http://www.w3.org/1999/xlink" x="0px" y="0px"
	 viewBox="0 0 24 18" style="enable-background:new 0 0 24 18;" xml:space="preserve">
<style type="text/css">
	.st0{opacity:0.4;fill:#FFFFFF;}
	.st1{fill:#FFFFFF;}
</style>
<g>
	<path class="st0" d="M21.8,7v4c0.8-0.3,1.3-1.1,1.3-2C23.2,8.1,22.6,7.3,21.8,7"/>
	<path class="st1" d="M0.8,7.5c0-0.7,0-1.1,0.1-1.4c0.1-0.3,0.3-0.5,0.6-0.6C1.8,5.3,2.2,5.3,3,5.3h13.7c0.7,0,1.1,0,1.4,0.1
		c0.3,0.1,0.5,0.3,0.6,0.6c0.1,0.3,0.1,0.7,0.1,1.4v3.1c0,0.7,0,1.1-0.1,1.4c-0.1,0.3-0.3,0.5-0.6,0.6c-0.3,0.1-0.7,0.1-1.4,0.1H3
		c-0.7,0-1.1,0-1.4-0.1c-0.3-0.1-0.5-0.3-0.6-0.6c-0.1-0.3-0.1-0.7-0.1-1.4V7.5z"/>
</g>
</svg>
