<?xml version="1.0" encoding="utf-8"?>
<!-- Generator: Adobe Illustrator 22.0.0, SVG Export Plug-In . SVG Version: 6.00 Build 0)  -->
<svg version="1.1" id="Layer_1" xmlns="http://www.w3.org/2000/svg" xmlns:xlink="http://www.w3.org/1999/xlink" x="0px" y="0px"
	 viewBox="0 0 18 18" style="enable-background:new 0 0 18 18;" xml:space="preserve">
<style type="text/css">
	.st0{fill-rule:evenodd;clip-rule:evenodd;fill:#FFFFFF;}
</style>
<path class="st0" d="M2.5,10.3h-1c-0.6,0-1,0.4-1,1v2c0,0.6,0.4,1,1,1h1c0.6,0,1-0.4,1-1v-2C3.5,10.8,3.1,10.3,2.5,10.3z M7.2,8.3
	h-1c-0.6,0-1,0.4-1,1v4c0,0.6,0.4,1,1,1h1c0.6,0,1-0.4,1-1v-4C8.2,8.8,7.7,8.3,7.2,8.3z M10.8,6h1c0.6,0,1,0.4,1,1v6.3
	c0,0.6-0.4,1-1,1h-1c-0.6,0-1-0.4-1-1V7C9.8,6.4,10.3,6,10.8,6z M16.5,3.7h-1c-0.6,0-1,0.4-1,1v8.7c0,0.6,0.4,1,1,1h1
	c0.6,0,1-0.4,1-1V4.7C17.5,4.1,17.1,3.7,16.5,3.7z"/>
</svg>
