<?xml version="1.0" encoding="utf-8"?>
<!-- Generator: Adobe Illustrator 22.0.0, SVG Export Plug-In . SVG Version: 6.00 Build 0)  -->
<svg version="1.1" id="Layer_1" xmlns="http://www.w3.org/2000/svg" xmlns:xlink="http://www.w3.org/1999/xlink" x="0px" y="0px"
	 viewBox="0 0 84 58" style="enable-background:new 0 0 84 58;" xml:space="preserve">
<style type="text/css">
	.st0{fill:url(#SVGID_1_);}
</style>
<linearGradient id="SVGID_1_" gradientUnits="userSpaceOnUse" x1="-22.5" y1="30.0001" x2="150" y2="30.0001" gradientTransform="matrix(1 0 0 -1 0 59)">
	<stop  offset="0" style="stop-color:#660099"/>
	<stop  offset="0.8674" style="stop-color:#FF6600"/>
</linearGradient>
<path class="st0" d="M81.2,47.5h-2V6.3c0-2.7-2.2-5-5-5H9.8c-2.7,0-5,2.2-5,5v41.2h-2c-0.7,0-1.3,0.6-1.3,1.3v3.6
	c0,2.3,1.9,4.2,4.2,4.2h72.6c2.3,0,4.2-1.9,4.2-4.2v-3.6C82.5,48.1,81.9,47.5,81.2,47.5z M7.4,6.3C7.4,5,8.5,4,9.8,4h64.4
	c1.3,0,2.4,1.1,2.4,2.4v41.2H7.4V6.3z M38.2,50.1h7.6v0.7c0,0.3-0.2,0.6-0.6,0.6h-6.5c-0.3,0-0.6-0.2-0.6-0.6L38.2,50.1z M79.9,52.4
	c0,0.9-0.7,1.6-1.6,1.6H5.7c-0.9,0-1.6-0.7-1.6-1.6v-2.3h2h30.3v0.7c0,1.3,1,2.3,2.3,2.3h6.5c1.3,0,2.3-1,2.3-2.3v-0.7h30.3h2V52.4z
	 M73.3,5.3H10.7c-1.1,0-2,0.9-2,2v37c0,1.1,0.9,2,2,2h62.5c1.1,0,2-0.9,2-2v-37C75.3,6.2,74.4,5.3,73.3,5.3z M73.5,44.2
	c0,0.1-0.1,0.3-0.3,0.3H10.7c-0.1,0-0.3-0.1-0.3-0.3v-37c0-0.1,0.1-0.3,0.3-0.3h62.5c0.1,0,0.3,0.1,0.3,0.3V44.2z M19.3,18.9v15.6
	h4.8c1.4,0,2.6-0.3,3.7-0.9c1.1-0.6,1.9-1.5,2.5-2.6c0.6-1.1,0.9-2.4,0.9-3.9v-0.7c0-1.5-0.3-2.8-0.9-3.9c-0.6-1.1-1.5-2-2.5-2.6
	c-1.1-0.6-2.3-0.9-3.7-0.9H19.3z M22.6,31.9V21.5h1.6c1.3,0,2.2,0.4,2.9,1.2c0.7,0.8,1,2,1,3.6v0.8c0,1.5-0.4,2.7-1,3.5
	c-0.7,0.8-1.6,1.2-2.9,1.2H22.6z M41.1,29c0.4,0.3,0.6,0.8,0.6,1.4c0,0.6-0.2,1-0.6,1.3c-0.4,0.3-1,0.5-1.8,0.5
	c-2.1,0-3.1-0.9-3.1-2.6H33c0,1,0.3,1.9,0.8,2.7c0.5,0.8,1.3,1.4,2.3,1.8c1,0.4,2.1,0.7,3.3,0.7c1.7,0,3.1-0.4,4.1-1.1
	c1-0.8,1.5-1.8,1.5-3.2c0-1.2-0.4-2.2-1.3-3.1c-0.8-0.8-2.2-1.5-4-2.1c-1-0.3-1.8-0.6-2.3-1C37,24,36.7,23.5,36.7,23
	c0-0.5,0.2-1,0.7-1.3c0.4-0.3,1-0.5,1.8-0.5c0.8,0,1.5,0.2,1.9,0.6c0.5,0.4,0.7,0.9,0.7,1.7H45c0-0.9-0.2-1.8-0.7-2.5
	c-0.5-0.7-1.2-1.3-2-1.7c-0.9-0.4-1.9-0.6-3-0.6c-1.1,0-2.1,0.2-3,0.6c-0.9,0.4-1.6,0.9-2.1,1.6c-0.5,0.7-0.7,1.4-0.7,2.3
	c0,1.6,0.9,2.9,2.7,3.9c0.7,0.4,1.5,0.7,2.7,1.1C39.9,28.3,40.7,28.7,41.1,29z M61.5,18.9L59.4,30l-2.6-11.1h-2.7L51.5,30l-2.1-11.1
	h-3.2l3.5,15.6h3.2L55.4,24L58,34.5h3.2l3.5-15.6H61.5z"/>
</svg>
