<?xml version="1.0" encoding="utf-8"?>
<!-- Generator: Adobe Illustrator 22.0.0, SVG Export Plug-In . SVG Version: 6.00 Build 0)  -->
<svg version="1.1" id="Layer_1" xmlns="http://www.w3.org/2000/svg" xmlns:xlink="http://www.w3.org/1999/xlink" x="0px" y="0px"
	 viewBox="0 0 84 58" style="enable-background:new 0 0 84 58;" xml:space="preserve">
<style type="text/css">
	.st0{fill:url(#SVGID_1_);}
</style>
<linearGradient id="SVGID_1_" gradientUnits="userSpaceOnUse" x1="-22.5" y1="30.0001" x2="150" y2="30.0001" gradientTransform="matrix(1 0 0 -1 0 59)">
	<stop  offset="0" style="stop-color:#660099"/>
	<stop  offset="0.9141" style="stop-color:#FF6600"/>
</linearGradient>
<path class="st0" d="M81.2,47.5h-2V6.3c0-2.7-2.2-5-5-5H9.8c-2.7,0-5,2.2-5,5v41.2h-2c-0.7,0-1.3,0.6-1.3,1.3v3.6
	c0,2.3,1.9,4.2,4.2,4.2h72.6c2.3,0,4.2-1.9,4.2-4.2v-3.6C82.5,48.1,81.9,47.5,81.2,47.5z M7.4,6.3C7.4,5,8.5,4,9.8,4h64.4
	c1.3,0,2.4,1.1,2.4,2.4v41.2H7.4V6.3z M38.2,50.1h7.6v0.7c0,0.3-0.2,0.6-0.6,0.6h-6.5c-0.3,0-0.6-0.2-0.6-0.6L38.2,50.1L38.2,50.1z
	 M79.9,52.4c0,0.9-0.7,1.6-1.6,1.6H5.7c-0.9,0-1.6-0.7-1.6-1.6v-2.3h2h30.3v0.7c0,1.3,1,2.3,2.3,2.3h6.5c1.3,0,2.3-1,2.3-2.3v-0.7
	h30.3h2V52.4z M73.3,5.3H10.7c-1.1,0-2,0.9-2,2v37c0,1.1,0.9,2,2,2h62.5c1.1,0,2-0.9,2-2v-37C75.3,6.2,74.4,5.3,73.3,5.3z
	 M73.5,44.2c0,0.1-0.1,0.3-0.3,0.3H10.7c-0.1,0-0.3-0.1-0.3-0.3v-37c0-0.1,0.1-0.3,0.3-0.3h62.5c0.1,0,0.3,0.1,0.3,0.3V44.2z
	 M26.2,28.1h6.2v-2.6h-6.2v-4h7v-2.6H23v15.6h3.2V28.1z M45.4,33.3c1.1-1,1.7-2.3,1.9-4h-3.2c-0.1,1-0.4,1.7-0.8,2.1
	c-0.5,0.5-1.2,0.7-2.2,0.7c-1.1,0-1.9-0.4-2.4-1.2c-0.5-0.8-0.8-2-0.8-3.7V26c0-1.6,0.3-2.8,0.8-3.6c0.5-0.8,1.3-1.2,2.4-1.2
	c1,0,1.7,0.2,2.2,0.7c0.5,0.5,0.8,1.2,0.8,2.2h3.2c-0.2-1.7-0.8-3.1-1.9-4.1c-1.1-1-2.6-1.5-4.4-1.5c-1.3,0-2.4,0.3-3.4,0.9
	c-1,0.6-1.7,1.5-2.3,2.6c-0.5,1.1-0.8,2.5-0.8,4v1c0,2.4,0.6,4.2,1.7,5.6c1.2,1.3,2.7,2,4.7,2C42.8,34.7,44.3,34.2,45.4,33.3z
	 M59.8,33.3c1.1-1,1.7-2.3,1.9-4h-3.2c-0.1,1-0.4,1.7-0.8,2.1c-0.5,0.5-1.2,0.7-2.2,0.7c-1.1,0-1.9-0.4-2.4-1.2
	c-0.5-0.8-0.8-2-0.8-3.7V26c0-1.6,0.3-2.8,0.8-3.6c0.5-0.8,1.3-1.2,2.4-1.2c1,0,1.7,0.2,2.2,0.7c0.5,0.5,0.8,1.2,0.8,2.2h3.2
	c-0.2-1.7-0.8-3.1-1.9-4.1c-1.1-1-2.6-1.5-4.4-1.5c-1.3,0-2.4,0.3-3.4,0.9c-1,0.6-1.7,1.5-2.3,2.6c-0.5,1.1-0.8,2.5-0.8,4v1
	c0,2.4,0.6,4.2,1.7,5.6c1.2,1.3,2.7,2,4.7,2C57.2,34.7,58.7,34.2,59.8,33.3z"/>
</svg>
