<?xml version="1.0" encoding="utf-8"?>
<!-- Generator: Adobe Illustrator 22.0.0, SVG Export Plug-In . SVG Version: 6.00 Build 0)  -->
<svg version="1.1" id="Layer_1" xmlns="http://www.w3.org/2000/svg" xmlns:xlink="http://www.w3.org/1999/xlink" x="0px" y="0px"
	 viewBox="0 0 72 58" style="enable-background:new 0 0 72 58;" xml:space="preserve">
<style type="text/css">
	.st0{fill:url(#SVGID_1_);}
</style>
<linearGradient id="SVGID_1_" gradientUnits="userSpaceOnUse" x1="-11" y1="31" x2="108.5" y2="31" gradientTransform="matrix(1 0 0 -1 0 60)">
	<stop  offset="0" style="stop-color:#660099"/>
	<stop  offset="1" style="stop-color:#FF6600"/>
</linearGradient>
<path class="st0" d="M66.5,41.4H5.5C3.6,41.4,2,39.9,2,38V5.1c0-1.9,1.6-3.5,3.5-3.5h61.1c1.9,0,3.5,1.6,3.5,3.5V38
	C70,39.9,68.4,41.4,66.5,41.4z M5.5,4.5c-0.4,0-0.7,0.3-0.7,0.7V38c0,0.4,0.3,0.7,0.7,0.7h61.1c0.4,0,0.7-0.3,0.7-0.7V5.1
	c0-0.4-0.3-0.7-0.7-0.7H5.5z M28.7,32.2C28.3,31.9,28,31.5,28,31V12.1c0-0.5,0.3-1,0.8-1.2c0.5-0.2,1-0.2,1.5,0.1l13.2,9.4
	c0.4,0.3,0.6,0.7,0.6,1.1c0,0.5-0.2,0.9-0.6,1.1c0,0-9.9,7.1-13.2,9.4C30,32.3,29.4,32.6,28.7,32.2z M30.8,14.9v13.4l9.4-6.7
	L30.8,14.9z M41.8,49.4h26.8c0.8,0,1.4,0.6,1.4,1.4c0,0.8-0.6,1.4-1.4,1.4H41.8c-0.6,2.4-2.8,4.1-5.4,4.1c-2.6,0-4.7-1.8-5.4-4.1
	H3.4c-0.8,0-1.4-0.6-1.4-1.4c0-0.8,0.6-1.4,1.4-1.4h27.7c0.6-2.4,2.8-4.1,5.4-4.1C39,45.2,41.2,47,41.8,49.4z M33.7,50.8
	c0,1.5,1.2,2.7,2.7,2.7c1.5,0,2.7-1.2,2.7-2.7c0-1.5-1.2-2.7-2.7-2.7C34.9,48,33.7,49.3,33.7,50.8z"/>
</svg>
