<?xml version="1.0" encoding="utf-8"?>
<!-- Generator: Adobe Illustrator 22.0.0, SVG Export Plug-In . SVG Version: 6.00 Build 0)  -->
<svg version="1.1" id="Layer_1" xmlns="http://www.w3.org/2000/svg" xmlns:xlink="http://www.w3.org/1999/xlink" x="0px" y="0px"
	 viewBox="0 0 1080 1080" style="enable-background:new 0 0 1080 1080;" xml:space="preserve">
<style type="text/css">
	.st0{fill:#FFFFFF;}
</style>
<g>
	<g id="g382" transform="translate(389.553,287.037)">
		<g>
			<path id="path384_8_" class="st0" d="M262.3,280.6c0-4.9,3.9-8.2,8.2-8.2c4.4,0,8.2,3.3,8.2,8.2c0,4.9-3.9,8.2-8.2,8.2
				C266.2,288.8,262.3,285.5,262.3,280.6 M270.6,279.7c1.4,0,1.8-0.7,1.8-1.4c0-0.8-0.4-1.4-1.8-1.4h-1.8v2.8L270.6,279.7
				L270.6,279.7z M268.8,280.9v4.5h-1.5v-9.9h3.6c2.1,0,3.1,0.9,3.1,2.7c0,1.1-0.7,2-1.7,2.1v0c0.8,0.1,1.1,0.9,1.3,2.2
				c0.1,0.9,0.3,2.4,0.6,2.8h-1.7c-0.4-0.9-0.4-2.2-0.7-3.3c-0.3-0.8-0.7-1.1-1.7-1.1C270.2,280.9,268.8,280.9,268.8,280.9z
				 M277.2,280.6c0-3.9-2.8-6.8-6.7-6.8c-3.9,0-6.7,2.9-6.7,6.8c0,3.9,2.8,6.8,6.7,6.8C274.4,287.4,277.2,284.6,277.2,280.6"/>
		</g>
	</g>
	<g id="g386" transform="translate(381.397,285.1135)">
		<g>
			<g id="path388_8_">
				<path class="st0" d="M255.5,248.7l-14.8,16.7l-1.8,2l1.8,2l15.1,16.9h-12.5l-8.6-9.7l-2.2-2.5l-2.2,2.5l-8.5,9.7h-11.8
					l14.9-16.8l1.8-2l-1.8-2l-14.9-16.8h12.4l8.7,9.6l2.3,2.5l2.2-2.5l8.3-9.6H255.5 M262.2,245.7h-19.7l-9.2,10.6l-9.6-10.6h-20.4
					l19.4,21.8l-19.4,21.8H223l9.4-10.7l9.5,10.7h20.5l-19.5-21.9L262.2,245.7L262.2,245.7z"/>
			</g>
		</g>
	</g>
	<g id="g390" transform="translate(359.4679,285.1135)">
		<g>
			<g id="path392_8_">
				<path class="st0" d="M222.1,223.7v9.3h-18.9h-3v3v9.8v3h3h18.9v8.7h-18.9h-3v3v13.5v3h3h18.9v9.3l-32.1,0v-62.6H222.1
					 M225.1,220.7H187v68.6v0h38.1v-15.3h-21.9v-13.5h21.9v-14.7h-21.9V236h21.9V220.7L225.1,220.7z"/>
			</g>
		</g>
	</g>
	<g id="g394" transform="translate(352.1007,288.0945)">
		<path id="path396" class="st0" d="M168.5,275.8c-5.9,0-9.6-5.5-9.6-11.3c0-6.2,3.2-12.1,9.6-12.1c6.6,0,9.3,5.9,9.3,12.1
			C177.8,270.4,175,275.8,168.5,275.8 M111.5,257.6c1-4.4,4.4-7.2,8.6-7.2c4.6,0,7.9,2.8,8.7,7.2H111.5z M178.3,217.7v28.1h-0.2
			c-3.6-4.1-8-5.5-13.2-5.5c-10.6,0-18.5,7.2-21.3,16.7c-3.2-10.5-11.4-16.9-23.6-16.9c-9.9,0-17.7,4.4-21.8,11.7v-9H77.9V233h22.3
			v-15.3H59.6v68.6h18.2v-28.8H96c-0.5,2.1-0.8,4.4-0.8,6.8c0,14.3,10.9,24.4,24.9,24.4c11.7,0,19.5-5.5,23.6-15.5H128
			c-2.1,3-3.7,3.9-7.9,3.9c-4.9,0-9.1-4.3-9.1-9.3h31.8c1.4,11.4,10.2,21.2,22.4,21.2c5.2,0,10-2.6,13-6.9h0.2v4.4h16.1v-68.6
			L178.3,217.7L178.3,217.7z"/>
	</g>
</g>
</svg>
