<?xml version="1.0" encoding="utf-8"?>
<!-- Generator: Adobe Illustrator 22.0.0, SVG Export Plug-In . SVG Version: 6.00 Build 0)  -->
<svg version="1.1" id="Layer_1" xmlns="http://www.w3.org/2000/svg" xmlns:xlink="http://www.w3.org/1999/xlink" x="0px" y="0px"
	 viewBox="0 0 212 90" style="enable-background:new 0 0 212 90;" xml:space="preserve">
<style type="text/css">
	.st0{fill:#FF6600;}
	.st1{fill:#4D148C;}
</style>
<g>
	<g id="g382" transform="translate(389.553,287.037)">
		<g>
			<path id="path384_8_" class="st0" d="M-193.8-233.8c0-3.9,3.1-6.5,6.6-6.5c3.5,0,6.6,2.6,6.6,6.5c0,3.9-3.1,6.6-6.6,6.6
				C-190.7-227.3-193.8-229.9-193.8-233.8 M-187.1-234.6c1.1,0,1.4-0.6,1.4-1.1c0-0.6-0.3-1.1-1.4-1.1h-1.4v2.3L-187.1-234.6
				L-187.1-234.6z M-188.6-233.6v3.6h-1.2v-7.9h2.9c1.7,0,2.5,0.7,2.5,2.2c0,0.9-0.6,1.6-1.4,1.7v0c0.7,0.1,0.9,0.7,1.1,1.8
				c0.1,0.7,0.2,1.9,0.5,2.2h-1.4c-0.3-0.7-0.3-1.8-0.5-2.7c-0.2-0.7-0.6-0.9-1.3-0.9C-187.5-233.6-188.6-233.6-188.6-233.6z
				 M-181.8-233.8c0-3.2-2.3-5.5-5.4-5.5c-3.1,0-5.4,2.3-5.4,5.5c0,3.2,2.3,5.5,5.4,5.5C-184.1-228.4-181.8-230.7-181.8-233.8"/>
		</g>
	</g>
	<g id="g386" transform="translate(381.397,285.1135)">
		<g>
			<path id="path388_8_" class="st0" d="M-208.6-226.5l-7.6-8.6l-7.6,8.6h-15.9l15.6-17.5l-15.6-17.5h16.4l7.7,8.5l7.4-8.5h15.8
				l-15.5,17.4l15.7,17.6H-208.6z"/>
		</g>
	</g>
	<g id="g390" transform="translate(359.4679,285.1135)">
		<g>
			<path id="path392_8_" class="st0" d="M-248.3-226.5v-55.1h30.6v12.3h-17.6v7.8h17.6v11.8h-17.6v10.8h17.6v12.3L-248.3-226.5
				L-248.3-226.5z"/>
		</g>
	</g>
	<g id="g394" transform="translate(352.1007,288.0945)">
		<path id="path396" class="st1" d="M-261.7-237.9c-4.8,0-7.7-4.4-7.7-9.1c0-4.9,2.6-9.7,7.7-9.7c5.3,0,7.5,4.8,7.5,9.7
			C-254.2-242.2-256.5-237.9-261.7-237.9 M-307.5-252.5c0.8-3.5,3.5-5.8,6.9-5.8c3.7,0,6.3,2.2,7,5.8H-307.5z M-253.9-284.6v22.5
			h-0.1c-2.9-3.3-6.4-4.4-10.6-4.4c-8.5,0-14.9,5.8-17.1,13.4c-2.6-8.4-9.1-13.5-18.9-13.5c-7.9,0-14.2,3.6-17.5,9.4v-7.2h-16.4
			v-7.8h17.9v-12.3h-32.5v55.1h14.6v-23.1h14.6c-0.4,1.7-0.7,3.5-0.7,5.4c0,11.5,8.8,19.5,20,19.5c9.4,0,15.6-4.4,18.9-12.5h-12.5
			c-1.7,2.4-3,3.1-6.4,3.1c-3.9,0-7.3-3.4-7.3-7.5h25.5c1.1,9.1,8.2,17,18,17c4.2,0,8.1-2.1,10.4-5.6h0.1v3.6h12.9v-55.1
			L-253.9-284.6L-253.9-284.6z"/>
	</g>
	<g id="g398" transform="translate(362.3016,275.7312)">
		<path id="path400" class="st1" d="M-243.2-190.7c1.7,0,3-0.2,4.3-0.7v-6.4h-4.8v-1.5h6.6v8.9c-2.1,0.7-3.7,1.1-6.1,1.1
			c-6,0-9.3-4.6-9.3-10.2c0-5.6,2.6-10.2,8.6-10.2c3.2,0,5.9,1.7,6.6,4.7h-2c-0.4-2.1-2.6-3.3-4.6-3.3c-4.9,0-6.8,4.5-6.8,8.7
			C-250.7-195.2-248.1-190.7-243.2-190.7"/>
	</g>
	<g id="g402" transform="translate(367.6401,279.7723)">
		<path id="path404" class="st1" d="M-233.5-206.1c-2.8,0-3.7,2.3-3.7,4.7v7.8h-1.7v-9.7c0-1.3,0-2.7-0.1-4.1h1.6l0.1,2
			c0.8-1.6,2.2-2.3,4-2.3c0.2,0,0.5,0,0.8,0.1v1.7C-232.8-206.1-233.1-206.1-233.5-206.1"/>
	</g>
	<g id="g406" transform="translate(370.542,275.6539)">
		<path id="path408" class="st1" d="M-228.3-190.4c3.3,0,4.7-3,4.7-6c0-3-1.4-6-4.7-6c-3.3,0-4.7,3-4.7,6
			C-232.9-193.4-231.6-190.4-228.3-190.4 M-228.3-189.2c-4.2,0-6.5-3.2-6.5-7.2c0-4,2.3-7.2,6.5-7.2c4.2,0,6.5,3.2,6.5,7.2
			C-221.8-192.4-224.1-189.2-228.3-189.2"/>
	</g>
	<g id="g410" transform="translate(377.363,275.3232)">
		<path id="path412" class="st1" d="M-215.9-189.2l-0.1-2.1c-1,1.6-2.5,2.4-4.5,2.4c-3.7,0-4.9-2-4.9-5.5v-8.6h1.7v8
			c0,2.6,0.6,4.7,3.5,4.7c3.1,0,4.1-2.8,4.1-5.5v-7.2h1.7v9.7c0,1.4,0,2.8,0.1,4.1H-215.9z"/>
	</g>
	<g id="g414" transform="translate(379.8265,280.227)">
		<path id="path416" class="st1" d="M-211.4-207.9l0.1,2.1c1-1.6,2.5-2.4,4.5-2.4c3.7,0,4.9,2,4.9,5.5v8.6h-1.7v-8
			c0-2.6-0.6-4.7-3.5-4.7c-3.1,0-4.1,2.8-4.1,5.5v7.3h-1.7v-9.7c0-1.4,0-2.8-0.1-4.1H-211.4z"/>
	</g>
	<g id="g418" transform="translate(384.9781,277.7759)">
		<path id="path420" class="st1" d="M-202.1-198.5c0,2.9,1.2,5.8,4.5,5.8c3.1,0,4.2-2.5,4.2-5.8c0-3.3-1.1-5.8-4.2-5.8
			C-200.9-204.4-202.1-201.5-202.1-198.5 M-193.4-211.4h1.7v15.6c0,1.4,0,2.8,0.1,4.1h-1.6l-0.1-2.1c-1,1.6-2.4,2.4-4.4,2.4
			c-4.3,0-6.1-3.5-6.1-7.2c0-3.7,1.8-7.2,6.1-7.2c1.9,0,3.4,0.7,4.4,2.3V-211.4z"/>
	</g>
</g>
</svg>
