<?xml version="1.0" encoding="utf-8"?>
<!-- Generator: Adobe Illustrator 22.0.0, SVG Export Plug-In . SVG Version: 6.00 Build 0)  -->
<svg version="1.1" id="Layer_1" xmlns="http://www.w3.org/2000/svg" xmlns:xlink="http://www.w3.org/1999/xlink" x="0px" y="0px"
	 viewBox="0 0 26 26" style="enable-background:new 0 0 26 26;" xml:space="preserve">
<style type="text/css">
	.st0{fill:url(#SVGID_1_);}
	.st1{fill:url(#SVGID_2_);}
	.st2{fill:url(#SVGID_3_);}
	.st3{fill:url(#SVGID_4_);}
	.st4{fill:url(#SVGID_5_);}
	.st5{fill:url(#SVGID_6_);}
	.st6{fill:url(#SVGID_7_);}
</style>
<g>
	<linearGradient id="SVGID_1_" gradientUnits="userSpaceOnUse" x1="3" y1="13" x2="23" y2="13">
		<stop  offset="0" style="stop-color:#660099"/>
		<stop  offset="0.9141" style="stop-color:#FF6600"/>
	</linearGradient>
	<path class="st0" d="M23,23.3c0-1,0-2.1,0-3.1c0-4.6,0-9.3,0-13.9C23,5,22.3,4,21.1,3.7c-0.5-0.1-1-0.1-1.5-0.1c-0.5,0-0.9,0-1.4,0
		c0-0.3,0-0.6,0-0.9c0-0.3-0.1-0.5-0.5-0.6c-0.1,0-0.3,0-0.4,0c-0.5,0-0.9,0-1.4,0c-0.2,0-0.2-0.1-0.3-0.2c-0.4-0.9-1.1-1.4-2-1.6
		c-1.4-0.3-2.6,0.3-3.2,1.6c-0.1,0.1-0.1,0.2-0.3,0.2c-0.6,0-1.1,0-1.7,0C8,2.1,7.8,2.3,7.8,2.7c0,0.3,0,0.6,0,0.9
		c-0.1,0-0.2,0-0.3,0c-0.6,0-1.3,0-1.9,0c-0.2,0-0.5,0-0.7,0.1C3.7,4,3,5,3,6.3c0,2.5,0,4.9,0,7.4c0,3.2,0,6.4,0,9.7
		c0,0.8,0.3,1.4,1,1.9c0.4,0.3,0.8,0.4,1.3,0.5c5.1,0,10.3,0,15.4,0c0.1,0,0.1,0,0.2,0C22,25.5,23,24.6,23,23.3z M9.1,3.3
		c0.1,0,0.1,0,0.2,0c0.4,0,0.8,0,1.2,0c0.5,0,0.7-0.1,0.9-0.6c0.2-0.8,0.9-1.3,1.6-1.3c0.7,0,1.4,0.5,1.6,1.3
		c0.2,0.5,0.3,0.6,0.8,0.6c0.5,0,1,0,1.5,0c0,0.8,0,1.6,0,2.4c-2.6,0-5.2,0-7.8,0C9.1,4.9,9.1,4.1,9.1,3.3z M21.8,8.5
		c0,4.9,0,9.8,0,14.7c0,0.8-0.4,1.2-1.2,1.3c-0.1,0-0.2,0-0.3,0c-4.9,0-9.7,0-14.6,0c-0.3,0-0.6,0-0.8-0.1c-0.4-0.2-0.7-0.5-0.7-1
		c0,0,0-0.1,0-0.1c0-5.6,0-11.2,0-16.9c0-0.9,0.6-1.5,1.5-1.5c0.6,0,1.3,0,1.9,0c0.1,0,0.1,0,0.2,0c0,0.4,0,0.9,0,1.3
		c0,0.6,0.2,0.8,0.8,0.8c2.9,0,5.8,0,8.7,0c0.6,0,0.8-0.2,0.8-0.8c0-0.4,0-0.8,0-1.2c0,0,0,0,0,0c0,0,0,0,0,0c0.8,0,1.5,0,2.3,0
		c0.8,0,1.3,0.6,1.3,1.4C21.8,7,21.8,7.8,21.8,8.5z"/>
	<linearGradient id="SVGID_2_" gradientUnits="userSpaceOnUse" x1="11.7952" y1="20.5766" x2="19.9557" y2="20.5766">
		<stop  offset="0" style="stop-color:#660099"/>
		<stop  offset="0.9141" style="stop-color:#FF6600"/>
	</linearGradient>
	<path class="st1" d="M19.6,20C19.5,20,19.3,20,19.2,20c-1.1,0-2.2,0-3.3,0c-1.1,0-2.2,0-3.3,0c-0.1,0-0.2,0-0.4,0
		c-0.4,0.1-0.6,0.5-0.3,0.9c0.2,0.3,0.4,0.3,0.7,0.3c2.2,0,4.4,0,6.6,0c0.1,0,0.2,0,0.3,0c0.3,0,0.4-0.2,0.5-0.5
		C20,20.4,19.8,20.1,19.6,20z"/>
	<linearGradient id="SVGID_3_" gradientUnits="userSpaceOnUse" x1="11.7961" y1="10.8807" x2="19.957" y2="10.8807">
		<stop  offset="0" style="stop-color:#660099"/>
		<stop  offset="0.9141" style="stop-color:#FF6600"/>
	</linearGradient>
	<path class="st2" d="M19.7,10.4c-0.1-0.1-0.3-0.1-0.5-0.1c-1.1,0-2.2,0-3.3,0c-1.1,0-2.2,0-3.3,0c-0.1,0-0.2,0-0.3,0
		c-0.3,0.1-0.5,0.3-0.4,0.6c0,0.3,0.2,0.5,0.5,0.5c0.1,0,0.2,0,0.3,0c2.2,0,4.4,0,6.5,0c0.1,0,0.2,0,0.3,0c0.3,0,0.4-0.2,0.5-0.5
		C20,10.8,19.9,10.5,19.7,10.4z"/>
	<linearGradient id="SVGID_4_" gradientUnits="userSpaceOnUse" x1="11.7959" y1="15.7304" x2="19.9558" y2="15.7304">
		<stop  offset="0" style="stop-color:#660099"/>
		<stop  offset="0.9141" style="stop-color:#FF6600"/>
	</linearGradient>
	<path class="st3" d="M19.2,15.1c-1.1,0-2.2,0-3.3,0c-0.8,0-1.6,0-2.4,0c-0.4,0-0.7,0-1.1,0c-0.4,0-0.6,0.2-0.6,0.6
		c0,0.4,0.3,0.6,0.7,0.6c2.2,0,4.5,0,6.7,0c0.1,0,0.2,0,0.3,0c0.4-0.1,0.6-0.6,0.3-0.9C19.7,15.2,19.5,15.1,19.2,15.1z"/>
	<linearGradient id="SVGID_5_" gradientUnits="userSpaceOnUse" x1="6.0441" y1="15.3683" x2="10.8416" y2="15.3683">
		<stop  offset="0" style="stop-color:#660099"/>
		<stop  offset="0.9141" style="stop-color:#FF6600"/>
	</linearGradient>
	<path class="st4" d="M9.9,13.7c-0.1,0.1-0.2,0.1-0.3,0.2c-0.6,0.6-1.2,1.1-1.8,1.7C7.6,15.3,7.3,15,7,14.8c-0.2-0.2-0.6-0.2-0.8,0
		C6,14.9,6,15.3,6.1,15.5c0,0.1,0.1,0.1,0.2,0.2c0.3,0.3,0.7,0.7,1,1c0.4,0.4,0.7,0.4,1.1,0c0.7-0.7,1.4-1.3,2.1-2
		c0.1-0.1,0.2-0.1,0.2-0.2c0.2-0.2,0.2-0.5,0-0.7C10.5,13.6,10.2,13.6,9.9,13.7z"/>
	<linearGradient id="SVGID_6_" gradientUnits="userSpaceOnUse" x1="6.0529" y1="10.5194" x2="10.8413" y2="10.5194">
		<stop  offset="0" style="stop-color:#660099"/>
		<stop  offset="0.9141" style="stop-color:#FF6600"/>
	</linearGradient>
	<path class="st5" d="M6.3,10.9c0.3,0.4,0.7,0.7,1,1.1c0.4,0.4,0.7,0.4,1.1,0c0.7-0.7,1.4-1.4,2.1-2c0.1-0.1,0.1-0.1,0.2-0.2
		c0.2-0.3,0.1-0.6-0.1-0.8C10.3,8.7,10,8.7,9.7,9c-0.6,0.6-1.2,1.2-1.8,1.7c-0.3-0.3-0.6-0.5-0.8-0.8C6.9,9.8,6.7,9.7,6.4,9.8
		C6.2,9.9,6,10.1,6.1,10.3C6.1,10.5,6.2,10.7,6.3,10.9z"/>
	<linearGradient id="SVGID_7_" gradientUnits="userSpaceOnUse" x1="6.0398" y1="20.2139" x2="10.8408" y2="20.2139">
		<stop  offset="0" style="stop-color:#660099"/>
		<stop  offset="0.9141" style="stop-color:#FF6600"/>
	</linearGradient>
	<path class="st6" d="M10.6,18.6c-0.3-0.2-0.6-0.2-0.9,0.1c-0.6,0.6-1.2,1.2-1.8,1.7c-0.3-0.3-0.6-0.5-0.8-0.8
		c-0.4-0.3-0.8-0.2-1,0.2c-0.1,0.3,0,0.5,0.2,0.7c0.4,0.4,0.7,0.7,1.1,1.1C7.7,22,8,22,8.4,21.7c0.7-0.7,1.4-1.4,2.2-2.1
		c0.1-0.1,0.1-0.1,0.1-0.2C10.9,19.2,10.9,18.8,10.6,18.6z"/>
</g>
</svg>
