<svg width="24" height="24" viewBox="0 0 24 24" fill="none" xmlns="http://www.w3.org/2000/svg">
<path fill-rule="evenodd" clip-rule="evenodd" d="M12 2C6.47715 2 2 6.47715 2 12C2 17.5229 6.47715 22 12 22C17.5229 22 22 17.5229 22 12C22 6.47715 17.5229 2 12 2ZM12 20C7.58172 20 4 16.4183 4 12C4 7.58172 7.58172 4 12 4C16.4183 4 20 7.58172 20 12C20 16.4183 16.4183 20 12 20ZM10.34 11H16C16.5523 11 17 11.4477 17 12C17 12.5523 16.5523 13 16 13H10.41L11.71 14.28L11.7158 14.2858C12.1047 14.6779 12.1021 15.3111 11.71 15.7L11.7042 15.7058C11.3121 16.0947 10.6789 16.0921 10.29 15.7L7.29 12.7C7.20005 12.6078 7.12874 12.4992 7.08 12.38C7.02876 12.2598 7.00158 12.1307 7 12L7.02 11.91C7.02458 11.814 7.04485 11.7194 7.08 11.63C7.10674 11.5614 7.14384 11.4973 7.19 11.44C7.21652 11.3944 7.24662 11.3509 7.28 11.31L10.14 8.31C10.5211 7.90959 11.1546 7.89392 11.555 8.275C11.9554 8.65608 11.9711 9.28959 11.59 9.69L10.34 11Z" fill="#660099"/>
</svg>
