<?xml version="1.0" encoding="utf-8"?>
<!-- Generator: Adobe Illustrator 22.0.0, SVG Export Plug-In . SVG Version: 6.00 Build 0)  -->
<svg version="1.1" id="Layer_1" xmlns="http://www.w3.org/2000/svg" xmlns:xlink="http://www.w3.org/1999/xlink" x="0px" y="0px"
	 viewBox="0 0 30 30" style="enable-background:new 0 0 30 30;" xml:space="preserve">
<style type="text/css">
	.st0{fill:url(#SVGID_1_);}
	.st1{fill:url(#SVGID_2_);}
	.st2{fill:url(#SVGID_3_);}
	.st3{fill:url(#SVGID_4_);}
	.st4{fill:url(#SVGID_5_);}
	.st5{fill:url(#SVGID_6_);}
	.st6{fill:url(#SVGID_7_);}
	.st7{fill:url(#SVGID_8_);}
	.st8{fill:url(#SVGID_9_);}
	.st9{fill:url(#SVGID_10_);}
	.st10{fill:url(#SVGID_11_);}
	.st11{fill:url(#SVGID_12_);}
	.st12{fill:url(#SVGID_13_);}
</style>
<g>
	<linearGradient id="SVGID_1_" gradientUnits="userSpaceOnUse" x1="1" y1="15" x2="29" y2="15">
		<stop  offset="0" style="stop-color:#660099"/>
		<stop  offset="0.9141" style="stop-color:#FF6600"/>
	</linearGradient>
	<path class="st0" d="M29,20.9c0-1.4,0-2.9,0-4.3c0-1.5-1-2.6-2.6-2.6c-2.5,0-5,0-7.5,0c-0.1,0-0.2,0-0.4,0c0-0.1,0-0.3,0-0.4
		c0-2.7,0-5.5,0-8.2c0-0.9-0.5-1.5-1.3-1.7c-0.2,0-0.3,0-0.5,0c-1,0-2.1,0-3.1,0c-0.1,0-0.2,0-0.3,0c-0.1-0.3-0.2-0.7-0.4-1
		c-0.6-1.1-1.5-1.8-2.7-2c0,0-0.1,0-0.1,0c-0.3,0-0.6,0-0.8,0c-0.5,0.2-1,0.3-1.5,0.6C7,1.7,6.5,2.4,6.2,3.7c-0.1,0-0.2,0-0.3,0
		c-1,0-2.1,0-3.1,0C1.7,3.7,1,4.4,1,5.4c0,6,0,12,0,18.1c0,1.1,0.7,1.7,1.8,1.7c3.5,0,7,0,10.5,0c0.1,0,0.2,0,0.4,0
		c0,0.5,0,0.9,0,1.4c0,0.3,0,0.6,0.1,0.9c0.2,1,0.9,1.6,1.8,1.8c0.1,0,0.1,0,0.2,0.1c3.8,0,7.5,0,11.3,0c0.2,0,0.3-0.1,0.5-0.1
		c1-0.4,1.6-1.2,1.6-2.4C29,24.9,29,22.9,29,20.9z M5.3,4.8c0.4,0,0.8,0,1.2,0c0.5,0,0.7-0.2,0.7-0.7c0.1-1.3,1.1-2.4,2.4-2.4
		c1.3,0,2.4,0.9,2.6,2.3c0,0.1,0,0.2,0,0.3c0,0.4,0.2,0.6,0.6,0.6c0.4,0,0.9,0,1.3,0c0,0.5,0,1,0,1.6c-3,0-5.9,0-8.9,0
		C5.3,5.8,5.3,5.3,5.3,4.8z M13.7,15.9c-0.1,0.2-0.1,0.5-0.1,0.7c0,2.4,0,4.7,0,7.1c0,0.1,0,0.2,0,0.4c-0.1,0-0.2,0-0.3,0
		c-3.5,0-7,0-10.5,0c-0.5,0-0.7-0.2-0.7-0.7c0-6,0-12,0-17.9c0-0.5,0.2-0.7,0.7-0.7c0.5,0,0.9,0,1.4,0c0,0.4,0,0.7,0,1.1
		c0,0.3,0,0.6,0,1c0,0.4,0.2,0.6,0.6,0.6c0.4,0,0.8,0,1.2,0c2.9,0,5.8,0,8.6,0c0.6,0,0.8-0.2,0.8-0.8c0-0.6,0-1.3,0-1.9
		c0.6,0,1.1,0,1.7,0c0.2,0,0.4,0.2,0.4,0.4c0,0.1,0,0.2,0,0.3c0,2.7,0,5.5,0,8.2c0,0.1,0,0.2,0,0.3c-0.5,0-1,0-1.5,0
		C14.8,14.1,13.9,14.8,13.7,15.9z M20.7,28.3c-0.1,0-0.2,0-0.3,0c-1.4,0-2.9,0-4.3,0c-0.9,0-1.4-0.5-1.4-1.4c0-1.4,0-2.9,0-4.3
		c0-0.1,0-0.2,0-0.3c2,0,4,0,6,0C20.7,24.3,20.7,26.3,20.7,28.3z M20.7,21.1c-2,0-4,0-6,0c0-0.1,0-0.2,0-0.3c0-1.4,0-2.8,0-4.2
		c0-0.9,0.5-1.4,1.4-1.4c1.4,0,2.9,0,4.3,0c0.1,0,0.2,0,0.3,0C20.7,17.2,20.7,19.1,20.7,21.1z M27.9,22.6c0,1.4,0,2.8,0,4.2
		c0,0.9-0.5,1.4-1.4,1.4c-1.4,0-2.8,0-4.2,0c-0.1,0-0.2,0-0.3,0c0-2,0-4,0-6c2,0,4,0,6,0C27.9,22.4,27.9,22.5,27.9,22.6z M27.9,21.1
		c-2,0-4,0-6,0c0-2,0-4,0-6c0.1,0,0.2,0,0.3,0c1.4,0,2.8,0,4.2,0c1,0,1.5,0.5,1.5,1.5c0,1.4,0,2.8,0,4.2
		C27.9,20.9,27.9,21,27.9,21.1z"/>
	<linearGradient id="SVGID_2_" gradientUnits="userSpaceOnUse" x1="4.2045" y1="11.7884" x2="8.7149" y2="11.7884">
		<stop  offset="0" style="stop-color:#660099"/>
		<stop  offset="0.9141" style="stop-color:#FF6600"/>
	</linearGradient>
	<path class="st1" d="M4.8,14c1.1,0,2.2,0,3.3,0c0.4,0,0.6-0.2,0.6-0.6c0-1.1,0-2.2,0-3.3c0-0.4-0.2-0.6-0.6-0.6c-0.5,0-1.1,0-1.6,0
		c-0.5,0-1.1,0-1.6,0c-0.4,0-0.6,0.2-0.6,0.6c0,1.1,0,2.2,0,3.3C4.2,13.8,4.4,14,4.8,14z M5.4,10.7c0.7,0,1.5,0,2.2,0
		c0,0.7,0,1.5,0,2.2c-0.7,0-1.5,0-2.2,0C5.4,12.2,5.4,11.4,5.4,10.7z"/>
	<linearGradient id="SVGID_3_" gradientUnits="userSpaceOnUse" x1="4.2099" y1="17.0061" x2="12.196" y2="17.0061">
		<stop  offset="0" style="stop-color:#660099"/>
		<stop  offset="0.9141" style="stop-color:#FF6600"/>
	</linearGradient>
	<path class="st2" d="M11.5,16.4c-1.1,0-2.2,0-3.3,0c-1.1,0-2.1,0-3.2,0c-0.5,0-0.8,0.2-0.8,0.5c0,0.4,0.3,0.6,0.8,0.6
		c2.1,0,4.3,0,6.4,0c0.1,0,0.2,0,0.3,0c0.3-0.1,0.5-0.3,0.4-0.6C12.2,16.6,11.9,16.4,11.5,16.4z"/>
	<linearGradient id="SVGID_4_" gradientUnits="userSpaceOnUse" x1="4.2101" y1="20.0764" x2="9.6369" y2="20.0764">
		<stop  offset="0" style="stop-color:#660099"/>
		<stop  offset="0.9141" style="stop-color:#FF6600"/>
	</linearGradient>
	<path class="st3" d="M9,19.5c-1.4,0-2.7,0-4.1,0c-0.4,0-0.7,0.2-0.7,0.6c0,0.3,0.3,0.6,0.7,0.6c0.7,0,1.4,0,2.1,0
		c0.7,0,1.4,0,2.1,0c0.4,0,0.6-0.2,0.7-0.5C9.6,19.8,9.4,19.5,9,19.5z"/>
	<linearGradient id="SVGID_5_" gradientUnits="userSpaceOnUse" x1="10.3909" y1="10.0997" x2="15.1177" y2="10.0997">
		<stop  offset="0" style="stop-color:#660099"/>
		<stop  offset="0.9141" style="stop-color:#FF6600"/>
	</linearGradient>
	<path class="st4" d="M14.5,9.5c-0.6,0-1.2,0-1.7,0c-0.6,0-1.2,0-1.7,0c-0.4,0-0.6,0.2-0.6,0.5c0,0.3,0.2,0.6,0.6,0.6
		c1.2,0,2.3,0,3.5,0c0.4,0,0.6-0.2,0.6-0.6C15.1,9.7,14.9,9.5,14.5,9.5z"/>
	<linearGradient id="SVGID_6_" gradientUnits="userSpaceOnUse" x1="10.3911" y1="13.4767" x2="13.8772" y2="13.4767">
		<stop  offset="0" style="stop-color:#660099"/>
		<stop  offset="0.9141" style="stop-color:#FF6600"/>
	</linearGradient>
	<path class="st5" d="M13.3,12.9c-0.7,0-1.5,0-2.2,0c-0.4,0-0.6,0.2-0.6,0.6c0,0.3,0.3,0.6,0.6,0.6c0.4,0,0.7,0,1.1,0
		c0.4,0,0.7,0,1.1,0c0.4,0,0.6-0.2,0.6-0.6C13.9,13.1,13.6,12.9,13.3,12.9z"/>
	<linearGradient id="SVGID_7_" gradientUnits="userSpaceOnUse" x1="11.0778" y1="20.0846" x2="12.1947" y2="20.0846">
		<stop  offset="0" style="stop-color:#660099"/>
		<stop  offset="0.9141" style="stop-color:#FF6600"/>
	</linearGradient>
	<path class="st6" d="M11.7,19.5c-0.3,0-0.6,0.2-0.6,0.5c0,0.3,0.3,0.6,0.6,0.6c0.3,0,0.5-0.2,0.5-0.6C12.2,19.8,12,19.5,11.7,19.5z
		"/>
	<linearGradient id="SVGID_8_" gradientUnits="userSpaceOnUse" x1="15.9373" y1="25.2902" x2="19.5035" y2="25.2902">
		<stop  offset="0" style="stop-color:#660099"/>
		<stop  offset="0.9141" style="stop-color:#FF6600"/>
	</linearGradient>
	<path class="st7" d="M16.6,25.9c0.8,0,1.6,0,2.3,0c0.4,0,0.6-0.2,0.6-0.6c0-0.3-0.2-0.5-0.6-0.5c-0.4,0-0.8,0-1.2,0
		c-0.4,0-0.8,0-1.2,0c-0.4,0-0.6,0.2-0.6,0.5C15.9,25.6,16.2,25.8,16.6,25.9z"/>
	<linearGradient id="SVGID_9_" gradientUnits="userSpaceOnUse" x1="23.2196" y1="24.2228" x2="26.2946" y2="24.2228">
		<stop  offset="0" style="stop-color:#660099"/>
		<stop  offset="0.9141" style="stop-color:#FF6600"/>
	</linearGradient>
	<path class="st8" d="M23.8,24.8c0.3,0,0.6,0,0.9,0c0.3,0,0.6,0,1,0c0.3,0,0.6-0.2,0.6-0.6c0-0.3-0.2-0.6-0.6-0.6
		c-0.6,0-1.3,0-1.9,0c-0.3,0-0.6,0.2-0.6,0.5C23.2,24.5,23.5,24.8,23.8,24.8z"/>
	<linearGradient id="SVGID_10_" gradientUnits="userSpaceOnUse" x1="23.2198" y1="26.3041" x2="26.2945" y2="26.3041">
		<stop  offset="0" style="stop-color:#660099"/>
		<stop  offset="0.9141" style="stop-color:#FF6600"/>
	</linearGradient>
	<path class="st9" d="M25.7,25.7c-0.6,0-1.2,0-1.9,0c-0.4,0-0.6,0.2-0.6,0.6c0,0.3,0.3,0.6,0.6,0.6c0.3,0,0.6,0,0.9,0
		c0.3,0,0.6,0,0.9,0c0.4,0,0.6-0.2,0.6-0.6C26.3,26,26,25.7,25.7,25.7z"/>
	<linearGradient id="SVGID_11_" gradientUnits="userSpaceOnUse" x1="23.3265" y1="18.1381" x2="26.1896" y2="18.1381">
		<stop  offset="0" style="stop-color:#660099"/>
		<stop  offset="0.9141" style="stop-color:#FF6600"/>
	</linearGradient>
	<path class="st10" d="M25.5,18.2c0.2-0.2,0.4-0.3,0.5-0.5c0.2-0.3,0.2-0.6,0-0.8c-0.2-0.2-0.6-0.2-0.8,0c-0.1,0.1-0.3,0.3-0.4,0.5
		c-0.2-0.2-0.3-0.4-0.5-0.5c-0.3-0.2-0.6-0.2-0.8,0c-0.2,0.2-0.2,0.6,0,0.8c0.1,0.1,0.3,0.3,0.5,0.5c-0.2,0.2-0.3,0.3-0.5,0.4
		c-0.3,0.3-0.3,0.6,0,0.8c0.2,0.2,0.6,0.2,0.8,0c0.1-0.1,0.3-0.3,0.4-0.5c0.2,0.2,0.3,0.3,0.4,0.5c0.3,0.3,0.6,0.3,0.8,0
		c0.2-0.2,0.2-0.6,0-0.8C25.8,18.4,25.7,18.3,25.5,18.2z"/>
	<linearGradient id="SVGID_12_" gradientUnits="userSpaceOnUse" x1="15.9375" y1="18.1403" x2="19.5034" y2="18.1403">
		<stop  offset="0" style="stop-color:#660099"/>
		<stop  offset="0.9141" style="stop-color:#FF6600"/>
	</linearGradient>
	<path class="st11" d="M18.9,17.6c-0.2,0-0.4,0-0.6,0c0-0.2,0-0.4,0-0.6c0-0.4-0.2-0.6-0.6-0.6c-0.3,0-0.5,0.2-0.6,0.6
		c0,0.2,0,0.4,0,0.6c-0.2,0-0.4,0-0.6,0c-0.4,0-0.6,0.2-0.6,0.6c0,0.3,0.2,0.6,0.6,0.6c0.2,0,0.4,0,0.6,0c0,0.2,0,0.4,0,0.6
		c0,0.4,0.3,0.6,0.6,0.6c0.3,0,0.5-0.2,0.5-0.6c0-0.2,0-0.4,0-0.6c0.2,0,0.4,0,0.6,0c0.4,0,0.6-0.2,0.6-0.6
		C19.5,17.8,19.3,17.6,18.9,17.6z"/>
	<linearGradient id="SVGID_13_" gradientUnits="userSpaceOnUse" x1="9.2578" y1="3.4113" x2="10.376" y2="3.4113">
		<stop  offset="0" style="stop-color:#660099"/>
		<stop  offset="0.9141" style="stop-color:#FF6600"/>
	</linearGradient>
	<path class="st12" d="M9.8,2.9c-0.3,0-0.6,0.2-0.6,0.5C9.3,3.7,9.5,4,9.8,4c0.3,0,0.6-0.3,0.5-0.6C10.4,3.1,10.1,2.9,9.8,2.9z"/>
</g>
</svg>
