<?xml version="1.0" encoding="utf-8"?>
<!-- Generator: Adobe Illustrator 22.0.0, SVG Export Plug-In . SVG Version: 6.00 Build 0)  -->
<svg version="1.1" id="Layer_1" xmlns="http://www.w3.org/2000/svg" xmlns:xlink="http://www.w3.org/1999/xlink" x="0px" y="0px"
	 viewBox="0 0 24 24" style="enable-background:new 0 0 24 24;" xml:space="preserve">
<style type="text/css">
	.st0{fill:url(#SVGID_1_);}
	.st1{fill:url(#SVGID_2_);}
</style>
<g>
	<linearGradient id="SVGID_1_" gradientUnits="userSpaceOnUse" x1="1" y1="12" x2="23" y2="12">
		<stop  offset="0" style="stop-color:#660099"/>
		<stop  offset="0.9141" style="stop-color:#FF6600"/>
	</linearGradient>
	<path class="st0" d="M22.7,12c-0.7-1.9-2-3.1-4-3.6c-0.2-0.1-0.3-0.1-0.3-0.4c0-0.5,0-1,0-1.5c0-0.3-0.1-0.6-0.3-0.8
		c-1.5-1.5-3-3-4.5-4.4c-0.1-0.1-0.3-0.2-0.5-0.3C9.3,1,5.5,1,1.7,1C1.4,1.1,1.1,1.4,1,1.7c0,6.8,0,13.7,0,20.5
		c0.1,0.4,0.4,0.6,0.7,0.7c5.3,0,10.6,0,15.9,0c0.6-0.2,0.8-0.6,0.7-1.1c0-0.8,0-1.6,0-2.4c0-0.2,0-0.2,0.2-0.2
		c2.1-0.5,3.5-1.8,4.2-3.8c0.1-0.3,0.2-0.7,0.2-1.1c0-0.3,0-0.6,0-0.9C22.9,12.9,22.8,12.5,22.7,12z M16.6,21.1c-4.6,0-9.2,0-13.7,0
		c0-4.9,0-9.7,0-14.6c0.1,0,0.1,0,0.2,0c1.1,0,2.3,0,3.4,0c0.4,0,0.7-0.2,0.9-0.6c0.2-0.4,0.1-0.7-0.2-1C7,4.7,6.7,4.7,6.4,4.7
		c-1.1,0-2.2,0-3.2,0c-0.1,0-0.2,0-0.3,0c0-0.6,0-1.2,0-1.8c0.1,0,0.2,0,0.2,0c3.1,0,6.2,0,9.3,0c0.1,0,0.3,0.1,0.3,0.1
		c1.3,1.3,2.5,2.5,3.8,3.8c0.1,0.1,0.1,0.2,0.1,0.3c0,0.4,0,0.8,0,1.1c0,0.2-0.1,0.2-0.2,0.3c-1.2,0.2-2.2,0.8-3,1.7
		c-1.1,1.3-1.6,2.8-1.3,4.5c0.4,2.3,1.7,3.8,3.9,4.5c0,0,0.1,0,0.1,0c0.4,0.1,0.4,0.1,0.4,0.5C16.6,20.2,16.6,20.7,16.6,21.1z
		 M17.4,17.5c-2,0-3.6-1.7-3.6-3.7c0-2,1.7-3.7,3.7-3.6c2.1,0,3.7,1.7,3.6,3.7C21.1,15.9,19.5,17.5,17.4,17.5z"/>
	<linearGradient id="SVGID_2_" gradientUnits="userSpaceOnUse" x1="16.5866" y1="13.3762" x2="20.2468" y2="13.3762">
		<stop  offset="0" style="stop-color:#660099"/>
		<stop  offset="0.9141" style="stop-color:#FF6600"/>
	</linearGradient>
	<path class="st1" d="M19.8,14c-0.4-0.2-0.8-0.4-1.2-0.6c-0.1-0.1-0.2-0.1-0.2-0.3c0-0.4,0-0.7,0-1.1c0-0.5-0.4-0.9-0.9-0.9
		c-0.5,0-0.9,0.4-0.9,0.9c0,0.3,0,0.6,0,0.9c0,0,0,0,0,0c0,0.3,0,0.6,0,0.9c0,0.4,0.2,0.7,0.6,0.9c0.6,0.3,1.2,0.6,1.7,0.9
		c0.2,0.1,0.5,0.1,0.7,0.1c0.4-0.1,0.6-0.4,0.6-0.8C20.3,14.5,20.1,14.2,19.8,14z"/>
</g>
</svg>
