<?xml version="1.0" encoding="utf-8"?>
<!-- Generator: Adobe Illustrator 22.0.0, SVG Export Plug-In . SVG Version: 6.00 Build 0)  -->
<svg version="1.1" id="Layer_1" xmlns="http://www.w3.org/2000/svg" xmlns:xlink="http://www.w3.org/1999/xlink" x="0px" y="0px"
	 viewBox="0 0 9 9" style="enable-background:new 0 0 9 9;" xml:space="preserve">
<style type="text/css">
	.st0{fill:#00CC00;}
</style>
<path class="st0" d="M4.5,0.8c-2.1,0-3.8,1.7-3.8,3.8s1.7,3.8,3.8,3.8s3.8-1.7,3.8-3.8S6.6,0.8,4.5,0.8z M4.5,7.5c-1.7,0-3-1.3-3-3
	s1.3-3,3-3s3,1.3,3,3S6.2,7.5,4.5,7.5z M4.1,5l1.4-1.9h0C5.6,3,5.9,2.9,6,3.1c0.2,0.1,0.2,0.4,0.1,0.5L4.4,5.9C4.3,5.9,4.2,6,4.1,6
	C4,6,3.9,5.9,3.8,5.9L2.9,4.7C2.8,4.5,2.8,4.3,3,4.2C3.1,4,3.4,4.1,3.5,4.2L4.1,5z"/>
</svg>
