<?xml version="1.0" encoding="utf-8"?>
<!-- Generator: Adobe Illustrator 22.0.0, SVG Export Plug-In . SVG Version: 6.00 Build 0)  -->
<svg version="1.1" id="Layer_1" xmlns="http://www.w3.org/2000/svg" xmlns:xlink="http://www.w3.org/1999/xlink" x="0px" y="0px"
	 viewBox="0 0 48 48" style="enable-background:new 0 0 48 48;" xml:space="preserve">
<style type="text/css">
	.st0{fill:#660099;}
</style>
<g>
	<path class="st0" d="M33,29.4h-1.9l-0.7-0.6c2.3-2.7,3.7-6.2,3.7-10.1c0-8.6-6.9-15.5-15.5-15.5S3.2,10.1,3.2,18.6
		s6.9,15.5,15.5,15.5c3.8,0,7.4-1.4,10.1-3.7l0.6,0.7V33l11.9,11.9l3.6-3.6L33,29.4z M18.6,29.4c-5.9,0-10.7-4.8-10.7-10.7
		S12.7,7.9,18.6,7.9s10.7,4.8,10.7,10.7S24.6,29.4,18.6,29.4z"/>
</g>
</svg>
