<?xml version="1.0" encoding="utf-8"?>
<!-- Generator: Adobe Illustrator 22.0.0, SVG Export Plug-In . SVG Version: 6.00 Build 0)  -->
<svg version="1.1" id="Layer_1" xmlns="http://www.w3.org/2000/svg" xmlns:xlink="http://www.w3.org/1999/xlink" x="0px" y="0px"
	 viewBox="0 0 18 18" style="enable-background:new 0 0 18 18;" xml:space="preserve">
<style type="text/css">
	.st0{fill-rule:evenodd;clip-rule:evenodd;fill:#FFFFFF;}
</style>
<path class="st0" d="M11.3,12.2c0,0.1,0,0.2-0.1,0.2l-2,2c-0.1,0.1-0.1,0.1-0.2,0.1s-0.2,0-0.2-0.1l-2-2c-0.1-0.1-0.1-0.1-0.1-0.2
	s0-0.2,0.1-0.2c1.3-1.1,3.2-1.1,4.4,0C11.3,12,11.3,12.1,11.3,12.2z M9,9.6c1.2,0,2.4,0.5,3.3,1.3c0.1,0.1,0.3,0.1,0.4,0l1.2-1.2
	C14,9.6,14,9.5,14,9.5c0-0.1,0-0.2-0.1-0.2c-2.8-2.6-7-2.6-9.8,0C4,9.3,4,9.4,4,9.5c0,0.1,0,0.2,0.1,0.2l1.2,1.2
	c0.1,0.1,0.3,0.1,0.4,0C6.6,10,7.8,9.6,9,9.6z M9,5.8c2.2,0,4.4,0.9,6,2.4c0.1,0.1,0.3,0.1,0.4,0L16.6,7c0.1-0.1,0.1-0.1,0.1-0.2
	c0-0.1,0-0.2-0.1-0.2c-4.2-4.1-10.9-4.1-15.1,0C1.4,6.6,1.3,6.7,1.3,6.8c0,0.1,0,0.2,0.1,0.2l1.2,1.2c0.1,0.1,0.3,0.1,0.4,0
	C4.6,6.6,6.8,5.8,9,5.8z"/>
</svg>
