<?xml version="1.0" encoding="utf-8"?>
<!-- Generator: Adobe Illustrator 22.0.0, SVG Export Plug-In . SVG Version: 6.00 Build 0)  -->
<svg version="1.1" id="Layer_1" xmlns="http://www.w3.org/2000/svg" xmlns:xlink="http://www.w3.org/1999/xlink" x="0px" y="0px"
	 viewBox="0 0 28 28" style="enable-background:new 0 0 28 28;" xml:space="preserve">
<style type="text/css">
	.st0{fill:url(#SVGID_1_);}
	.st1{fill:url(#SVGID_2_);}
	.st2{fill:url(#SVGID_3_);}
	.st3{fill:url(#SVGID_4_);}
	.st4{fill:url(#SVGID_5_);}
	.st5{fill:url(#SVGID_6_);}
	.st6{fill:url(#SVGID_7_);}
	.st7{fill:url(#SVGID_8_);}
</style>
<g>
	<linearGradient id="SVGID_1_" gradientUnits="userSpaceOnUse" x1="8.8433" y1="12.5" x2="18.7172" y2="12.5">
		<stop  offset="0" style="stop-color:#660099"/>
		<stop  offset="0.9141" style="stop-color:#FF6600"/>
	</linearGradient>
	<path class="st0" d="M18.7,17l0-0.2c0,0,0-0.1,0-0.1c0-0.7,0-1.3,0-2c0-1.6,0-3.2,0-4.8c0-1.8-1.5-3.3-3.2-3.5
		c-0.4,0-0.8,0-1.2-0.1c1-0.2,1.8-0.8,2.2-1.8c0.5-1.3,0.1-2.7-0.9-3.5c-0.5-0.4-1-0.5-1.5-0.6h-0.6l-0.2,0
		c-1.6,0.3-2.6,1.7-2.5,3.3C11,5.1,12,6.2,13.2,6.4c-0.3,0-0.6,0-0.9,0C10.4,6.5,8.9,8.1,8.9,10c0,1.6,0,3.2,0,4.7c0,0.7,0,1.3,0,2
		c0,0,0,0.1,0,0.2l0,0.2h1.5v1.9l0,4.2c0,0.3,0,0.5,0,0.8l0,0.6h1.2V15h-1.3v0.7h-0.3l0-1.6c0-1.4,0-2.7,0-4.1c0-1.2,0.8-2.2,2-2.4
		c1.2-0.2,2.3-0.2,3.5,0c1.2,0.2,2,1.2,2,2.5c0,1.4,0,2.7,0,4.1l0,1.5h-0.3V15h-1.2l0,9.5h1.2l0-0.3c0-0.1,0-0.1,0-0.2l0-7h1.3
		L18.7,17z M12.5,4.7C12.2,4.3,12,3.9,12,3.5c0-0.9,0.8-1.7,1.7-1.7c0,0,0,0,0,0c0.5,0,0.9,0.2,1.2,0.5c0.3,0.3,0.5,0.8,0.5,1.2
		c0,1-0.8,1.7-1.7,1.7c0,0,0,0,0,0C13.3,5.2,12.9,5,12.5,4.7z"/>
	<linearGradient id="SVGID_2_" gradientUnits="userSpaceOnUse" x1="19.052" y1="14.4617" x2="25.7817" y2="14.4617">
		<stop  offset="0" style="stop-color:#660099"/>
		<stop  offset="0.9141" style="stop-color:#FF6600"/>
	</linearGradient>
	<path class="st1" d="M25.8,12.1l-0.2,0.1c0,0,0,0,0,0L25.8,12.1L25.8,12.1L25.8,12.1c-0.4-1.6-1.5-2.6-3.1-2.6l-0.5,0
		c0.5-0.1,0.9-0.3,1.3-0.7c0.5-0.5,0.8-1.1,0.8-1.8c0-1.4-1.2-2.6-2.6-2.6c0,0,0,0,0,0c-0.7,0-1.3,0.3-1.8,0.8
		c-0.5,0.5-0.8,1.1-0.8,1.8c0,1.2,0.9,2.3,2,2.5l-2,0v1.2l1.3,0c0.8,0,1.5,0,2.3,0c0.2,0,0.4,0,0.6,0.1c0.8,0.2,1.3,0.9,1.3,1.7
		c0,1.2,0,2.4,0,3.6l0,1.2h-0.3v-0.8h-1l-0.2,0l0,0.3l0,7.6h1.2v-5.9h1.6L25.8,12.1L25.8,12.1z M20.7,7.9c-0.2-0.3-0.4-0.6-0.4-0.9
		c0-0.4,0.2-0.7,0.4-1c0.3-0.2,0.6-0.4,0.9-0.4C22.4,5.7,23,6.3,23,7c0,0.7-0.6,1.3-1.3,1.3c0,0,0,0,0,0C21.3,8.3,20.9,8.2,20.7,7.9
		z M23.2,16.9C23.2,16.9,23.2,16.9,23.2,16.9L23.2,16.9L23.2,16.9z"/>
	<linearGradient id="SVGID_3_" gradientUnits="userSpaceOnUse" x1="1.7817" y1="14.462" x2="8.512" y2="14.462">
		<stop  offset="0" style="stop-color:#660099"/>
		<stop  offset="0.9141" style="stop-color:#FF6600"/>
	</linearGradient>
	<path class="st2" d="M8.5,9.5l-2,0c1.1-0.3,2-1.3,2-2.5c0-1.4-1.1-2.6-2.5-2.6c-1.4,0-2.6,1.1-2.6,2.5c0,0.7,0.2,1.3,0.7,1.8
		c0.4,0.4,0.8,0.6,1.3,0.7l-0.5,0c-0.1,0-0.2,0-0.3,0c-1,0.1-1.7,0.5-2.2,1.3c-0.2,0.3-0.3,0.6-0.4,0.9c0,0.1-0.1,0.3-0.1,0.4l0,6.5
		h1.6v5.9h1.2l0-7.6c0,0,0-0.1,0-0.1l0-0.2H3.3v0.8H3l0-1c0-1.3,0-2.5,0-3.8c0-0.4,0.1-0.7,0.4-1c0.4-0.5,0.9-0.7,1.6-0.7
		c0.7,0,1.4,0,2.2,0l1.4,0V9.5z M5.9,5.7C5.9,5.7,5.9,5.7,5.9,5.7c0.7,0,1.3,0.6,1.3,1.3c0,0.7-0.6,1.3-1.3,1.3C5.6,8.3,5.3,8.2,5,8
		C4.7,7.7,4.6,7.4,4.6,7C4.6,6.3,5.2,5.7,5.9,5.7z"/>
	<linearGradient id="SVGID_4_" gradientUnits="userSpaceOnUse" x1="7.2386" y1="20.5554" x2="10.0724" y2="20.5554">
		<stop  offset="0" style="stop-color:#660099"/>
		<stop  offset="0.9141" style="stop-color:#FF6600"/>
	</linearGradient>
	<path class="st3" d="M8.5,16.6H7.3l0,7.4c0,0.1,0,0.1,0,0.2l0,0.3h1.3l0-0.3c0,0,0-0.1,0-0.1c0-1.8,0-3.7,0-5.5h1.6v-1.2H8.5V16.6z
		"/>
	<linearGradient id="SVGID_5_" gradientUnits="userSpaceOnUse" x1="17.4906" y1="20.5523" x2="20.3247" y2="20.5523">
		<stop  offset="0" style="stop-color:#660099"/>
		<stop  offset="0.9141" style="stop-color:#FF6600"/>
	</linearGradient>
	<path class="st4" d="M20.3,24l0-7.4H19v0.8h-1.6v1.2H19l0,5.5c0,0,0,0.1,0,0.1l0,0.3h1.3l0-0.3C20.3,24.1,20.3,24,20.3,24z"/>
	<linearGradient id="SVGID_6_" gradientUnits="userSpaceOnUse" x1="13.1254" y1="20.5514" x2="14.4379" y2="20.5514">
		<stop  offset="0" style="stop-color:#660099"/>
		<stop  offset="0.9141" style="stop-color:#FF6600"/>
	</linearGradient>
	<path class="st5" d="M14.4,24l0-7.4h-1.2l0,7.4c0,0.1,0,0.1,0,0.2l0,0.3h1.3l0-0.3C14.4,24.1,14.4,24,14.4,24z"/>
	<linearGradient id="SVGID_7_" gradientUnits="userSpaceOnUse" x1="5.323" y1="21.3386" x2="6.5576" y2="21.3386">
		<stop  offset="0" style="stop-color:#660099"/>
		<stop  offset="0.9141" style="stop-color:#FF6600"/>
	</linearGradient>
	<rect x="5.3" y="18.2" class="st6" width="1.2" height="6.3"/>
	<linearGradient id="SVGID_8_" gradientUnits="userSpaceOnUse" x1="21.0057" y1="21.339" x2="22.2404" y2="21.339">
		<stop  offset="0" style="stop-color:#660099"/>
		<stop  offset="0.9141" style="stop-color:#FF6600"/>
	</linearGradient>
	<rect x="21" y="18.2" class="st7" width="1.2" height="6.3"/>
</g>
</svg>
